<svg id="Layer_3" data-name="Layer 3" xmlns="http://www.w3.org/2000/svg" viewBox="0 0 1107 718"><defs><style>.cls-1,.cls-2,.cls-3,.cls-8{fill:none;stroke-miterlimit:10;}.cls-1{stroke:#000;}.cls-1,.cls-2,.cls-3{stroke-width:4px;}.cls-2{stroke:#b2afaa;}.cls-3{stroke:#e85424;}.cls-4,.cls-6,.cls-7{font-size:35px;}.cls-4,.cls-5,.cls-6,.cls-7{font-family:MicrosoftSansSerif, Microsoft Sans Serif;}.cls-5{font-size:20px;}.cls-6{fill:#e85424;}.cls-7{fill:#b2afaa;}.cls-8{stroke:#090606;}</style></defs><title>16 vs 24 bit ADC</title><polyline class="cls-1" points="132.7 585.82 283.77 585.82 293.49 118.48 861.53 118.48 873.46 585.82 1019.23 585.82"/><path class="cls-2" d="M998.47,617.62l-15-39.31-7.07,1.32-15.9-55.21L948.55,524l-1.76-29.16-12.37,1.77-16.35-58.31-8.39.44-5.74-32.24-11,3.53-7.07-29.15-9.72-1.33-5.3-24.73L861.09,357l-10.16-38-12.37,3.53-11.92-30.48-7.51,1.33-5.3-31.8L794,262.92l-8-29.59-14.58.88-7.95-30.48-24.73,3.09-7.51-30.48-24.3-.44-5.74-30-49.91-3.54-6.19-21.2-66.26-2.65-68.46,5.3-5.3,23H453.83l-3.09,27.83H424.67l-15,30.48-15.91-5.75L385.8,232H368.58L358,262.92,338.54,266l-4.86,26.51H321.31l-7.06,28.27H300.11l-9.28,27.6-8.39,3.76-10.6,30.48h-4L259.47,410H252.4l-10.15,27.83-8.84,1.77-11.48,56.54H210.44s-8.39,28.27-7.95,30-7.51,0-7.51,0l-15.9,55.66L172,580.07,156.11,615"/><path class="cls-3" d="M158.32,617.62S328.38,118.48,582.15,118.48,998.47,617.62,998.47,617.62"/><polyline class="cls-1" points="132.7 79.17 132.7 617.62 1031.6 617.62"/><text class="cls-4" transform="translate(295.69 580.69) scale(0.58)">12 Bits</text><text class="cls-5" transform="translate(78.07 617.88) scale(0.58)">4.9974</text><text class="cls-5" transform="translate(235.99 640.62) scale(0.58)">24.6m</text><text class="cls-5" transform="translate(319.91 640.62) scale(0.58)">24.7m</text><text class="cls-5" transform="translate(400.75 640.62) scale(0.58)">24.8m</text><text class="cls-5" transform="translate(479.59 640.62) scale(0.58)">24.9m</text><text class="cls-5" transform="translate(565.73 640.62) scale(0.58)">25.0m</text><text class="cls-5" transform="translate(646.56 640.62) scale(0.58)">25.1m</text><text class="cls-5" transform="translate(725.41 640.62) scale(0.58)">25.2m</text><text class="cls-5" transform="translate(807.57 640.62) scale(0.58)">25.3m</text><text class="cls-5" transform="translate(886.42 640.62) scale(0.58)">25.4m</text><text class="cls-5" transform="translate(967.03 640.62) scale(0.58)">25.4m</text><text class="cls-5" transform="translate(154.71 640.62) scale(0.58)">24.5m</text><text class="cls-5" transform="translate(78.07 540.43) scale(0.58)">4.9978</text><text class="cls-5" transform="translate(78.07 502.15) scale(0.58)">4.9980</text><text class="cls-5" transform="translate(78.07 577.97) scale(0.58)">4.9976</text><text class="cls-5" transform="translate(78.07 465.92) scale(0.58)">4.9982</text><text class="cls-5" transform="translate(78.07 388.48) scale(0.58)">4.9986</text><text class="cls-5" transform="translate(78.07 350.19) scale(0.58)">4.9988</text><text class="cls-5" transform="translate(78.07 426.02) scale(0.58)">4.9984</text><text class="cls-5" transform="translate(78.07 312.8) scale(0.58)">4.9990</text><text class="cls-5" transform="translate(78.07 235.35) scale(0.58)">4.9994</text><text class="cls-5" transform="translate(78.07 197.07) scale(0.58)">4.9996</text><text class="cls-5" transform="translate(78.07 272.89) scale(0.58)">4.9992</text><text class="cls-5" transform="translate(78.07 122.56) scale(0.58)">4.9950</text><text class="cls-5" transform="translate(78.07 84.28) scale(0.58)">4.9952</text><text class="cls-5" transform="translate(78.07 160.11) scale(0.58)">4.9998</text><text class="cls-6" transform="translate(551.67 161.5) scale(0.58)">24 Bits</text><text class="cls-7" transform="translate(364.38 283.85) scale(0.58)">16 Bits</text><line class="cls-8" x1="132.7" y1="79.83" x2="123.28" y2="79.83"/><line class="cls-8" x1="132.7" y1="117.6" x2="123.28" y2="117.6"/><line class="cls-8" x1="132.7" y1="155.36" x2="123.28" y2="155.36"/><line class="cls-8" x1="132.7" y1="193.13" x2="123.28" y2="193.13"/><line class="cls-8" x1="132.7" y1="231.78" x2="123.28" y2="231.78"/><line class="cls-8" x1="132.7" y1="269.55" x2="123.28" y2="269.55"/><line class="cls-8" x1="132.7" y1="307.31" x2="123.28" y2="307.31"/><line class="cls-8" x1="132.7" y1="345.08" x2="123.28" y2="345.08"/><line class="cls-8" x1="132.7" y1="383.73" x2="123.28" y2="383.73"/><line class="cls-8" x1="132.7" y1="421.5" x2="123.28" y2="421.5"/><line class="cls-8" x1="132.7" y1="459.26" x2="123.28" y2="459.26"/><line class="cls-8" x1="132.7" y1="497.03" x2="123.28" y2="497.03"/><line class="cls-8" x1="132.7" y1="535.68" x2="123.28" y2="535.68"/><line class="cls-8" x1="132.7" y1="573.45" x2="123.28" y2="573.45"/><line class="cls-8" x1="132.7" y1="611.21" x2="123.28" y2="611.21"/><line class="cls-8" x1="252.26" y1="627.04" x2="252.26" y2="617.62"/><line class="cls-8" x1="169.58" y1="627.04" x2="169.58" y2="617.62"/><line class="cls-8" x1="415.18" y1="627.04" x2="415.18" y2="617.62"/><line class="cls-8" x1="333.61" y1="627.04" x2="333.61" y2="617.62"/><line class="cls-8" x1="578.54" y1="627.04" x2="578.54" y2="617.62"/><line class="cls-8" x1="496.97" y1="627.04" x2="496.97" y2="617.62"/><line class="cls-8" x1="741.46" y1="627.04" x2="741.46" y2="617.62"/><line class="cls-8" x1="659.89" y1="627.04" x2="659.89" y2="617.62"/><line class="cls-8" x1="902.98" y1="627.04" x2="902.98" y2="617.62"/><line class="cls-8" x1="983.89" y1="627.04" x2="983.89" y2="617.62"/><line class="cls-8" x1="821.41" y1="627.04" x2="821.41" y2="617.62"/></svg>