<svg id="Layer_2" data-name="Layer 2" xmlns="http://www.w3.org/2000/svg" viewBox="0 0 1107 718"><defs><style>.cls-1{fill:#b2afaa;opacity:0.3;}.cls-2,.cls-3,.cls-5{fill:none;stroke-miterlimit:10;stroke-width:4px;}.cls-2{stroke:#282725;}.cls-3{stroke:#e85424;}.cls-4,.cls-9{fill:#e85424;}.cls-5{stroke:#1a171b;}.cls-6{fill:#1a171b;}.cls-7,.cls-9{font-size:35px;}.cls-7,.cls-8,.cls-9{font-family:MicrosoftSansSerif, Microsoft Sans Serif;}.cls-8{font-size:20px;}</style></defs><title>ADC Sampling Rate</title><path class="cls-1" d="M31.77,364.07s47-167.41,53.44-192.36,39-138.26,64.72-138.26c29,0,90.77,138,129.42,150s108.3-41.21,128.54-48.15c20.61-7.06,79.73-16.78,122.58,73.77S630.74,450.65,630.74,450.65s82.16,256,151.51,259.07c62.22,2.77,113.3-126.33,113.3-126.33l99.38-219.32"/><path class="cls-2" d="M31.77,364.07s47-167.41,53.44-192.36,39-138.26,64.72-138.26c29,0,90.77,138,129.42,150s108.3-41.21,128.54-48.15c20.61-7.06,79.73-16.78,122.58,73.77S630.74,450.65,630.74,450.65s82.16,256,151.51,259.07c62.22,2.77,113.3-126.33,113.3-126.33l99.38-219.32"/><line class="cls-3" x1="78.81" y1="364.07" x2="78.81" y2="192.69"/><line class="cls-3" x1="149.93" y1="364.07" x2="149.93" y2="36.32"/><line class="cls-3" x1="225.02" y1="364.07" x2="225.02" y2="128.2"/><line class="cls-3" x1="296.13" y1="364.07" x2="296.13" y2="180.54"/><line class="cls-3" x1="368.8" y1="364.07" x2="368.8" y2="156.69"/><line class="cls-3" x1="441.02" y1="364.07" x2="441.02" y2="131.95"/><line class="cls-3" x1="513.02" y1="364.07" x2="513.02" y2="180.54"/><line class="cls-3" x1="584.58" y1="364.07" x2="584.58" y2="328.96"/><line class="cls-3" x1="657.46" y1="364.07" x2="657.46" y2="514.26"/><line class="cls-3" x1="729.46" y1="364.07" x2="729.46" y2="664.44"/><line class="cls-3" x1="801.02" y1="364.07" x2="801.02" y2="702.43"/><line class="cls-3" x1="873.9" y1="364.07" x2="873.9" y2="629.99"/><line class="cls-3" x1="945.02" y1="364.07" x2="945.02" y2="472.74"/><circle class="cls-4" cx="78.7" cy="189.6" r="10.49"/><circle class="cls-4" cx="149.93" cy="36.32" r="10.49"/><circle class="cls-4" cx="226.2" cy="128.2" r="10.49"/><circle class="cls-4" cx="296.13" cy="182.2" r="10.49"/><circle class="cls-4" cx="368.8" cy="156.69" r="10.49"/><circle class="cls-4" cx="441.02" cy="133.72" r="10.49"/><circle class="cls-4" cx="513.02" cy="182.2" r="10.49"/><circle class="cls-4" cx="584.58" cy="328.96" r="10.49"/><circle class="cls-4" cx="657.46" cy="511.83" r="10.49"/><circle class="cls-4" cx="729.46" cy="664.44" r="10.49"/><circle class="cls-4" cx="801.02" cy="702.43" r="10.49"/><circle class="cls-4" cx="873.9" cy="629.99" r="10.49"/><circle class="cls-4" cx="945.02" cy="472.74" r="10.49"/><line class="cls-5" x1="28.9" y1="364.07" x2="1076.43" y2="364.07"/><polygon class="cls-6" points="1073.52 374.05 1090.79 364.07 1073.52 354.1 1073.52 374.05"/><text class="cls-7" transform="translate(21.39 405.7)">0</text><text class="cls-8" transform="translate(73.51 392.67)">0</text><text class="cls-8" transform="translate(220.16 392.67)">i</text><text class="cls-8" transform="translate(143.74 392.67)">...</text><text class="cls-8" transform="translate(290.61 392.67)">4</text><text class="cls-8" transform="translate(360.85 392.67)">5</text><text class="cls-8" transform="translate(436.6 392.67)">6</text><text class="cls-8" transform="translate(509.37 392.67)">7</text><text class="cls-8" transform="translate(579.17 392.67)">8</text><text class="cls-8" transform="translate(652.05 354.73)">9</text><text class="cls-8" transform="translate(714.77 354.73)">10</text><text class="cls-8" transform="translate(932.25 354.73)">13</text><text class="cls-7" transform="translate(201.9 63.56)">S(t)</text><text class="cls-7" transform="translate(1039.4 405.7)">t</text><text class="cls-9" transform="translate(231.06 110.97)">S</text><text class="cls-9" transform="translate(254.4 122.62) scale(0.58)">i</text></svg>