<svg id="Layer_2" data-name="Layer 2" xmlns="http://www.w3.org/2000/svg" viewBox="0 0 2000 1000"><defs><style>.cls-1{fill:#e85424;}.cls-1,.cls-2,.cls-4,.cls-7,.cls-8,.cls-9{stroke:#1a171b;stroke-miterlimit:10;}.cls-1,.cls-2,.cls-4{stroke-width:5px;}.cls-2,.cls-7,.cls-8,.cls-9{fill:none;}.cls-3,.cls-5{fill:#1a171b;}.cls-4{fill:#b2afaa;}.cls-5,.cls-6{font-size:30px;font-family:MicrosoftSansSerif, Microsoft Sans Serif;}.cls-6{fill:#fff;}.cls-7,.cls-8,.cls-9{stroke-width:3px;}.cls-8{stroke-dasharray:11.99 11.99;}.cls-9{stroke-dasharray:12.09 12.09;}</style></defs><title>Sigma Delta ADC</title><rect class="cls-1" x="1076.19" y="827.53" width="188.17" height="115.73"/><rect class="cls-1" x="1264.36" y="827.53" width="188.17" height="115.73"/><line class="cls-2" x1="1159.83" y1="325.04" x2="1749.98" y2="325.04"/><polygon class="cls-3" points="1746.33 337.5 1767.92 325.04 1746.33 312.57 1746.33 337.5"/><rect class="cls-1" x="1259.94" y="291.5" width="92.76" height="111.76"/><polyline class="cls-2" points="1161.13 545.27 327.92 545.27 327.92 303.21 377.64 303.21"/><polygon class="cls-4" points="1155.26 535.11 1155.26 485.32 1063.38 485.32 1012.78 545.27 1063.38 605.22 1155.26 605.22 1155.26 555.43 1155.26 535.11"/><polygon class="cls-2" points="728.93 221.26 728.93 291.5 728.93 361.74 865.75 291.5 728.93 221.26"/><polygon class="cls-2" points="1024.31 254.8 1024.31 325.04 1024.31 395.27 1161.13 325.04 1024.31 254.8"/><polygon class="cls-2" points="377.64 189.21 377.64 259.44 377.64 329.68 514.46 259.44 377.64 189.21"/><text class="cls-5" transform="translate(894.77 76.88)">Λ-Σ modulator</text><text class="cls-5" transform="translate(987.4 233.61)">Comparator</text><text class="cls-5" transform="translate(715.97 130.05)">Integrator</text><text class="cls-5" transform="translate(386.62 231.88)">+</text><text class="cls-5" transform="translate(389.38 308.82)">-</text><text class="cls-5" transform="translate(739.29 338.97)">+</text><text class="cls-5" transform="translate(743.06 267.85)">-</text><text class="cls-5" transform="translate(1038.72 303.85)">+</text><text class="cls-5" transform="translate(1042.48 371.08)">-</text><text class="cls-5" transform="translate(1247.75 270.06)">D flip-flop</text><text class="cls-6" transform="translate(1271.18 335.65)">D</text><text class="cls-6" transform="translate(1323.99 335.65)">Q</text><text class="cls-6" transform="translate(1271.18 381.37)">C</text><text class="cls-5" transform="translate(1596.09 876.54)">Converter<tspan x="0" y="36">output</tspan></text><text class="cls-5" transform="translate(1145.49 462.57)">Clock</text><text class="cls-5" transform="translate(1611.22 308.38)">Bit-stream output</text><text class="cls-5" transform="translate(316.66 155.23)">Difference amplifier</text><text class="cls-5" transform="translate(998.06 684.67)">Reference voltage</text><text class="cls-6" transform="translate(1120.17 858.49)">DSP<tspan x="0" y="36">low-pass</tspan><tspan x="0" y="72">filter</tspan></text><text class="cls-6"><tspan x="1291.41" y="894.49">Decimator</tspan></text><text class="cls-5" transform="translate(1066.39 538.63)">1-bit<tspan x="-2.4" y="36">DAC</tspan></text><text class="cls-5" transform="translate(181.48 202.81)">Input</text><polyline class="cls-7" points="1596.09 715.07 1596.09 721.07 1590.09 721.07"/><line class="cls-8" x1="1578.1" y1="721.07" x2="288.9" y2="721.07"/><polyline class="cls-7" points="282.9 721.07 276.9 721.07 276.9 715.07"/><line class="cls-9" x1="276.9" y1="702.98" x2="276.9" y2="104.34"/><polyline class="cls-7" points="276.9 98.29 276.9 92.29 282.9 92.29"/><line class="cls-8" x1="294.89" y1="92.29" x2="1584.1" y2="92.29"/><polyline class="cls-7" points="1590.09 92.29 1596.09 92.29 1596.09 98.29"/><line class="cls-9" x1="1596.09" y1="110.38" x2="1596.09" y2="709.03"/><polyline class="cls-2" points="1677.81 325.04 1677.81 761.71 877.42 761.71 877.42 885.39 1059.13 885.39"/><polygon class="cls-3" points="1055.49 897.86 1077.07 885.39 1055.49 872.93 1055.49 897.86"/><line class="cls-2" x1="1454.01" y1="885.39" x2="1572.41" y2="885.39"/><polygon class="cls-3" points="1568.76 897.86 1590.35 885.39 1568.76 872.93 1568.76 897.86"/><line class="cls-4" x1="377.64" y1="221.26" x2="214.84" y2="221.26"/><polyline class="cls-2" points="1454.01 325.04 1454.01 545.27 1173.2 545.27"/><polygon class="cls-3" points="1176.85 532.8 1155.26 545.27 1176.85 557.74 1176.85 532.8"/><polyline class="cls-2" points="514.46 259.44 570.64 259.44 577.36 252.72 584.56 270.08 594.05 252.72 601.56 270.08 610.18 252.72 618.35 270.08 623.87 259.44 728.93 259.44"/><polyline class="cls-2" points="769.86 166.5 678.2 166.5 678.2 259.44"/><path class="cls-2" d="M755.28,145.52s12.37,11,12.37,21-12.37,21.2-12.37,21.2"/><line class="cls-2" x1="784.44" y1="145.52" x2="784.44" y2="186.82"/><polyline class="cls-2" points="785.32 166.17 882.5 166.17 882.5 291.5 1025.17 291.5"/><line class="cls-2" x1="882.5" y1="291.5" x2="861.96" y2="291.5"/><polyline class="cls-2" points="728.93 329.68 658.03 329.68 658.03 422.47"/><line class="cls-2" x1="638.01" y1="422.47" x2="678.2" y2="422.47"/><line class="cls-2" x1="648.17" y1="428.66" x2="668.04" y2="428.66"/><line class="cls-2" x1="652.58" y1="435.15" x2="663.63" y2="435.15"/><polyline class="cls-2" points="1025.17 363.84 954.27 363.84 954.27 456.63"/><line class="cls-2" x1="934.24" y1="456.63" x2="974.44" y2="456.63"/><line class="cls-2" x1="944.4" y1="462.82" x2="964.28" y2="462.82"/><line class="cls-2" x1="948.82" y1="469.31" x2="959.86" y2="469.31"/><polyline class="cls-2" points="1259.94 373.44 1187.94 373.44 1187.94 433.07"/><line class="cls-2" x1="1112.41" y1="657.47" x2="1112.41" y2="633.89"/><polygon class="cls-3" points="1124.88 637.53 1112.41 615.95 1099.94 637.53 1124.88 637.53"/><line class="cls-4" x1="1155.26" y1="605.22" x2="1155.26" y2="555.43"/></svg>