<svg id="Layer_3" data-name="Layer 3" xmlns="http://www.w3.org/2000/svg" viewBox="0 0 1528.77 785.1"><defs><style>.cls-1,.cls-4,.cls-6{fill:none;}.cls-1{stroke:#e85424;}.cls-1,.cls-3,.cls-4,.cls-6,.cls-8,.cls-9{stroke-miterlimit:10;}.cls-1,.cls-3,.cls-4,.cls-8{stroke-width:4px;}.cls-10,.cls-2,.cls-3{fill:#e85424;}.cls-3,.cls-4,.cls-6,.cls-8,.cls-9{stroke:#1a171b;}.cls-5,.cls-7,.cls-8{fill:#1a171b;}.cls-6,.cls-9{stroke-width:5px;}.cls-13,.cls-7{font-size:30px;font-family:MicrosoftSansSerif, Microsoft Sans Serif;}.cls-9{fill:#b2afaa;}.cls-10{font-size:35px;font-family:MyriadPro-Regular, Myriad Pro;}.cls-11{letter-spacing:-0.01em;}.cls-12{letter-spacing:-0.01em;}.cls-13{fill:#fff;}</style></defs><title>SAR ADC</title><line class="cls-1" x1="937.98" y1="315.3" x2="937.98" y2="513.54"/><polygon class="cls-2" points="928.01 510.62 937.98 527.89 947.96 510.62 928.01 510.62"/><rect class="cls-3" x="732.58" y="157.16" width="405.5" height="158.13"/><polyline class="cls-4" points="1043.11 57.34 937.98 57.34 937.98 142.81"/><polygon class="cls-5" points="928.01 139.89 937.98 157.16 947.96 139.89 928.01 139.89"/><polyline class="cls-4" points="732.59 236.23 363.31 236.23 363.31 336.28"/><polygon class="cls-5" points="353.34 333.37 363.31 350.64 373.28 333.37 353.34 333.37"/><polygon class="cls-6" points="296.3 315.3 296.3 385.54 296.3 455.77 433.12 385.54 296.3 315.3"/><text class="cls-7" transform="translate(308.63 366.96)">+</text><text class="cls-7" transform="translate(310.43 426.38)">-</text><polygon class="cls-6" points="596.54 341.76 596.54 412 596.54 482.24 733.36 412 596.54 341.76"/><text class="cls-7" transform="translate(606.9 461.08)">+</text><text class="cls-7" transform="translate(610.66 394.1)">-</text><line class="cls-8" x1="296.3" y1="385.54" x2="206.94" y2="385.54"/><line class="cls-8" x1="596.54" y1="385.54" x2="433.12" y2="385.54"/><polyline class="cls-4" points="596.54 450.46 506.43 450.46 506.43 587.84 851.85 587.84"/><polyline class="cls-4" points="733.36 412 818.72 412 818.72 329.65"/><polygon class="cls-5" points="828.69 332.57 818.72 315.3 808.75 332.57 828.69 332.57"/><polygon class="cls-9" points="990.55 577.68 990.55 527.89 898.67 527.89 848.07 587.84 898.67 647.78 990.55 647.78 990.55 598 990.55 577.68"/><text class="cls-7" transform="translate(901.68 581.2)">1-bit<tspan x="-2.4" y="36">DAC</tspan></text><line class="cls-1" x1="937.98" y1="385.54" x2="1197.05" y2="385.54"/><polygon class="cls-2" points="1194.14 395.51 1211.41 385.54 1194.14 375.56 1194.14 395.51"/><line class="cls-4" x1="937.98" y1="702.68" x2="937.98" y2="647.78"/><text class="cls-10" transform="translate(946.82 472.63)">N bits</text><text class="cls-10" transform="translate(1222.45 396.66)">Di<tspan class="cls-11" x="31.5" y="0">g</tspan><tspan x="50.85" y="0">itali</tspan><tspan class="cls-12" x="103.95" y="0">z</tspan><tspan x="118.68" y="0">ed output</tspan></text><text class="cls-7" transform="translate(523.96 319.35)">Comparator</text><text class="cls-7" transform="translate(113.49 396.15)">Input</text><text class="cls-7" transform="translate(809.3 727.44)">Reference voltage</text><text class="cls-7" transform="translate(1067.15 68.18)">Start conversion</text><text class="cls-13" transform="translate(763.65 207.35)">Successive approximation<tspan x="50.4" y="36">register (SAR) and</tspan><tspan x="90.23" y="72" xml:space="preserve"> control logic</tspan></text><text class="cls-7" transform="translate(189.37 487.51)">Sample-and-hold<tspan x="57.47" y="36">amplifier</tspan></text></svg>