<?xml version="1.0" encoding="utf-8" standalone="no"?>
<!DOCTYPE svg PUBLIC "-//W3C//DTD SVG 1.1//EN"
  "http://www.w3.org/Graphics/SVG/1.1/DTD/svg11.dtd">
<svg xmlns:xlink="http://www.w3.org/1999/xlink" width="432pt" height="288pt" viewBox="0 0 432 288" xmlns="http://www.w3.org/2000/svg" version="1.1">
 <metadata>
  <rdf:RDF xmlns:dc="http://purl.org/dc/elements/1.1/" xmlns:cc="http://creativecommons.org/ns#" xmlns:rdf="http://www.w3.org/1999/02/22-rdf-syntax-ns#">
   <cc:Work>
    <dc:type rdf:resource="http://purl.org/dc/dcmitype/StillImage"/>
    <dc:date>2022-09-16T11:04:31.020831</dc:date>
    <dc:format>image/svg+xml</dc:format>
    <dc:creator>
     <cc:Agent>
      <dc:title>Matplotlib v3.5.1, https://matplotlib.org/</dc:title>
     </cc:Agent>
    </dc:creator>
   </cc:Work>
  </rdf:RDF>
 </metadata>
 <defs>
  <style type="text/css">*{stroke-linejoin: round; stroke-linecap: butt}</style>
 </defs>
 <g id="figure_1">
  <g id="patch_1">
   <path d="M 0 288 
L 432 288 
L 432 0 
L 0 0 
z
" style="fill: #ffffff"/>
  </g>
  <g id="axes_1">
   <g id="patch_2">
    <path d="M 54 252 
L 388.8 252 
L 388.8 34.56 
L 54 34.56 
z
" style="fill: #ffffff"/>
   </g>
   <g id="matplotlib.axis_1">
    <g id="xtick_1">
     <g id="line2d_1">
      <defs>
       <path id="m81fd655582" d="M 0 0 
L 0 3.5 
" style="stroke: #000000; stroke-width: 0.8"/>
      </defs>
      <g>
       <use xlink:href="#m81fd655582" x="69.218182" y="252" style="stroke: #000000; stroke-width: 0.8"/>
      </g>
     </g>
     <g id="text_1">
      <!-- 0 -->
      <g transform="translate(66.036932 266.598437)scale(0.1 -0.1)">
       <defs>
        <path id="DejaVuSans-30" d="M 2034 4250 
Q 1547 4250 1301 3770 
Q 1056 3291 1056 2328 
Q 1056 1369 1301 889 
Q 1547 409 2034 409 
Q 2525 409 2770 889 
Q 3016 1369 3016 2328 
Q 3016 3291 2770 3770 
Q 2525 4250 2034 4250 
z
M 2034 4750 
Q 2819 4750 3233 4129 
Q 3647 3509 3647 2328 
Q 3647 1150 3233 529 
Q 2819 -91 2034 -91 
Q 1250 -91 836 529 
Q 422 1150 422 2328 
Q 422 3509 836 4129 
Q 1250 4750 2034 4750 
z
" transform="scale(0.015625)"/>
       </defs>
       <use xlink:href="#DejaVuSans-30"/>
      </g>
     </g>
    </g>
    <g id="xtick_2">
     <g id="line2d_2">
      <g>
       <use xlink:href="#m81fd655582" x="130.705785" y="252" style="stroke: #000000; stroke-width: 0.8"/>
      </g>
     </g>
     <g id="text_2">
      <!-- 20 -->
      <g transform="translate(124.343285 266.598437)scale(0.1 -0.1)">
       <defs>
        <path id="DejaVuSans-32" d="M 1228 531 
L 3431 531 
L 3431 0 
L 469 0 
L 469 531 
Q 828 903 1448 1529 
Q 2069 2156 2228 2338 
Q 2531 2678 2651 2914 
Q 2772 3150 2772 3378 
Q 2772 3750 2511 3984 
Q 2250 4219 1831 4219 
Q 1534 4219 1204 4116 
Q 875 4013 500 3803 
L 500 4441 
Q 881 4594 1212 4672 
Q 1544 4750 1819 4750 
Q 2544 4750 2975 4387 
Q 3406 4025 3406 3419 
Q 3406 3131 3298 2873 
Q 3191 2616 2906 2266 
Q 2828 2175 2409 1742 
Q 1991 1309 1228 531 
z
" transform="scale(0.015625)"/>
       </defs>
       <use xlink:href="#DejaVuSans-32"/>
       <use xlink:href="#DejaVuSans-30" x="63.623047"/>
      </g>
     </g>
    </g>
    <g id="xtick_3">
     <g id="line2d_3">
      <g>
       <use xlink:href="#m81fd655582" x="192.193388" y="252" style="stroke: #000000; stroke-width: 0.8"/>
      </g>
     </g>
     <g id="text_3">
      <!-- 40 -->
      <g transform="translate(185.830888 266.598437)scale(0.1 -0.1)">
       <defs>
        <path id="DejaVuSans-34" d="M 2419 4116 
L 825 1625 
L 2419 1625 
L 2419 4116 
z
M 2253 4666 
L 3047 4666 
L 3047 1625 
L 3713 1625 
L 3713 1100 
L 3047 1100 
L 3047 0 
L 2419 0 
L 2419 1100 
L 313 1100 
L 313 1709 
L 2253 4666 
z
" transform="scale(0.015625)"/>
       </defs>
       <use xlink:href="#DejaVuSans-34"/>
       <use xlink:href="#DejaVuSans-30" x="63.623047"/>
      </g>
     </g>
    </g>
    <g id="xtick_4">
     <g id="line2d_4">
      <g>
       <use xlink:href="#m81fd655582" x="253.680992" y="252" style="stroke: #000000; stroke-width: 0.8"/>
      </g>
     </g>
     <g id="text_4">
      <!-- 60 -->
      <g transform="translate(247.318492 266.598437)scale(0.1 -0.1)">
       <defs>
        <path id="DejaVuSans-36" d="M 2113 2584 
Q 1688 2584 1439 2293 
Q 1191 2003 1191 1497 
Q 1191 994 1439 701 
Q 1688 409 2113 409 
Q 2538 409 2786 701 
Q 3034 994 3034 1497 
Q 3034 2003 2786 2293 
Q 2538 2584 2113 2584 
z
M 3366 4563 
L 3366 3988 
Q 3128 4100 2886 4159 
Q 2644 4219 2406 4219 
Q 1781 4219 1451 3797 
Q 1122 3375 1075 2522 
Q 1259 2794 1537 2939 
Q 1816 3084 2150 3084 
Q 2853 3084 3261 2657 
Q 3669 2231 3669 1497 
Q 3669 778 3244 343 
Q 2819 -91 2113 -91 
Q 1303 -91 875 529 
Q 447 1150 447 2328 
Q 447 3434 972 4092 
Q 1497 4750 2381 4750 
Q 2619 4750 2861 4703 
Q 3103 4656 3366 4563 
z
" transform="scale(0.015625)"/>
       </defs>
       <use xlink:href="#DejaVuSans-36"/>
       <use xlink:href="#DejaVuSans-30" x="63.623047"/>
      </g>
     </g>
    </g>
    <g id="xtick_5">
     <g id="line2d_5">
      <g>
       <use xlink:href="#m81fd655582" x="315.168595" y="252" style="stroke: #000000; stroke-width: 0.8"/>
      </g>
     </g>
     <g id="text_5">
      <!-- 80 -->
      <g transform="translate(308.806095 266.598437)scale(0.1 -0.1)">
       <defs>
        <path id="DejaVuSans-38" d="M 2034 2216 
Q 1584 2216 1326 1975 
Q 1069 1734 1069 1313 
Q 1069 891 1326 650 
Q 1584 409 2034 409 
Q 2484 409 2743 651 
Q 3003 894 3003 1313 
Q 3003 1734 2745 1975 
Q 2488 2216 2034 2216 
z
M 1403 2484 
Q 997 2584 770 2862 
Q 544 3141 544 3541 
Q 544 4100 942 4425 
Q 1341 4750 2034 4750 
Q 2731 4750 3128 4425 
Q 3525 4100 3525 3541 
Q 3525 3141 3298 2862 
Q 3072 2584 2669 2484 
Q 3125 2378 3379 2068 
Q 3634 1759 3634 1313 
Q 3634 634 3220 271 
Q 2806 -91 2034 -91 
Q 1263 -91 848 271 
Q 434 634 434 1313 
Q 434 1759 690 2068 
Q 947 2378 1403 2484 
z
M 1172 3481 
Q 1172 3119 1398 2916 
Q 1625 2713 2034 2713 
Q 2441 2713 2670 2916 
Q 2900 3119 2900 3481 
Q 2900 3844 2670 4047 
Q 2441 4250 2034 4250 
Q 1625 4250 1398 4047 
Q 1172 3844 1172 3481 
z
" transform="scale(0.015625)"/>
       </defs>
       <use xlink:href="#DejaVuSans-38"/>
       <use xlink:href="#DejaVuSans-30" x="63.623047"/>
      </g>
     </g>
    </g>
    <g id="xtick_6">
     <g id="line2d_6">
      <g>
       <use xlink:href="#m81fd655582" x="376.656198" y="252" style="stroke: #000000; stroke-width: 0.8"/>
      </g>
     </g>
     <g id="text_6">
      <!-- 100 -->
      <g transform="translate(367.112448 266.598437)scale(0.1 -0.1)">
       <defs>
        <path id="DejaVuSans-31" d="M 794 531 
L 1825 531 
L 1825 4091 
L 703 3866 
L 703 4441 
L 1819 4666 
L 2450 4666 
L 2450 531 
L 3481 531 
L 3481 0 
L 794 0 
L 794 531 
z
" transform="scale(0.015625)"/>
       </defs>
       <use xlink:href="#DejaVuSans-31"/>
       <use xlink:href="#DejaVuSans-30" x="63.623047"/>
       <use xlink:href="#DejaVuSans-30" x="127.246094"/>
      </g>
     </g>
    </g>
   </g>
   <g id="matplotlib.axis_2">
    <g id="ytick_1">
     <g id="line2d_7">
      <defs>
       <path id="m49c9ba0c35" d="M 0 0 
L -3.5 0 
" style="stroke: #000000; stroke-width: 0.8"/>
      </defs>
      <g>
       <use xlink:href="#m49c9ba0c35" x="54" y="242.116364" style="stroke: #000000; stroke-width: 0.8"/>
      </g>
     </g>
     <g id="text_7">
      <!-- −1.00 -->
      <g transform="translate(16.354687 245.915582)scale(0.1 -0.1)">
       <defs>
        <path id="DejaVuSans-2212" d="M 678 2272 
L 4684 2272 
L 4684 1741 
L 678 1741 
L 678 2272 
z
" transform="scale(0.015625)"/>
        <path id="DejaVuSans-2e" d="M 684 794 
L 1344 794 
L 1344 0 
L 684 0 
L 684 794 
z
" transform="scale(0.015625)"/>
       </defs>
       <use xlink:href="#DejaVuSans-2212"/>
       <use xlink:href="#DejaVuSans-31" x="83.789062"/>
       <use xlink:href="#DejaVuSans-2e" x="147.412109"/>
       <use xlink:href="#DejaVuSans-30" x="179.199219"/>
       <use xlink:href="#DejaVuSans-30" x="242.822266"/>
      </g>
     </g>
    </g>
    <g id="ytick_2">
     <g id="line2d_8">
      <g>
       <use xlink:href="#m49c9ba0c35" x="54" y="217.407273" style="stroke: #000000; stroke-width: 0.8"/>
      </g>
     </g>
     <g id="text_8">
      <!-- −0.75 -->
      <g transform="translate(16.354687 221.206491)scale(0.1 -0.1)">
       <defs>
        <path id="DejaVuSans-37" d="M 525 4666 
L 3525 4666 
L 3525 4397 
L 1831 0 
L 1172 0 
L 2766 4134 
L 525 4134 
L 525 4666 
z
" transform="scale(0.015625)"/>
        <path id="DejaVuSans-35" d="M 691 4666 
L 3169 4666 
L 3169 4134 
L 1269 4134 
L 1269 2991 
Q 1406 3038 1543 3061 
Q 1681 3084 1819 3084 
Q 2600 3084 3056 2656 
Q 3513 2228 3513 1497 
Q 3513 744 3044 326 
Q 2575 -91 1722 -91 
Q 1428 -91 1123 -41 
Q 819 9 494 109 
L 494 744 
Q 775 591 1075 516 
Q 1375 441 1709 441 
Q 2250 441 2565 725 
Q 2881 1009 2881 1497 
Q 2881 1984 2565 2268 
Q 2250 2553 1709 2553 
Q 1456 2553 1204 2497 
Q 953 2441 691 2322 
L 691 4666 
z
" transform="scale(0.015625)"/>
       </defs>
       <use xlink:href="#DejaVuSans-2212"/>
       <use xlink:href="#DejaVuSans-30" x="83.789062"/>
       <use xlink:href="#DejaVuSans-2e" x="147.412109"/>
       <use xlink:href="#DejaVuSans-37" x="179.199219"/>
       <use xlink:href="#DejaVuSans-35" x="242.822266"/>
      </g>
     </g>
    </g>
    <g id="ytick_3">
     <g id="line2d_9">
      <g>
       <use xlink:href="#m49c9ba0c35" x="54" y="192.698182" style="stroke: #000000; stroke-width: 0.8"/>
      </g>
     </g>
     <g id="text_9">
      <!-- −0.50 -->
      <g transform="translate(16.354687 196.497401)scale(0.1 -0.1)">
       <use xlink:href="#DejaVuSans-2212"/>
       <use xlink:href="#DejaVuSans-30" x="83.789062"/>
       <use xlink:href="#DejaVuSans-2e" x="147.412109"/>
       <use xlink:href="#DejaVuSans-35" x="179.199219"/>
       <use xlink:href="#DejaVuSans-30" x="242.822266"/>
      </g>
     </g>
    </g>
    <g id="ytick_4">
     <g id="line2d_10">
      <g>
       <use xlink:href="#m49c9ba0c35" x="54" y="167.989091" style="stroke: #000000; stroke-width: 0.8"/>
      </g>
     </g>
     <g id="text_10">
      <!-- −0.25 -->
      <g transform="translate(16.354687 171.78831)scale(0.1 -0.1)">
       <use xlink:href="#DejaVuSans-2212"/>
       <use xlink:href="#DejaVuSans-30" x="83.789062"/>
       <use xlink:href="#DejaVuSans-2e" x="147.412109"/>
       <use xlink:href="#DejaVuSans-32" x="179.199219"/>
       <use xlink:href="#DejaVuSans-35" x="242.822266"/>
      </g>
     </g>
    </g>
    <g id="ytick_5">
     <g id="line2d_11">
      <g>
       <use xlink:href="#m49c9ba0c35" x="54" y="143.28" style="stroke: #000000; stroke-width: 0.8"/>
      </g>
     </g>
     <g id="text_11">
      <!-- 0.00 -->
      <g transform="translate(24.734375 147.079219)scale(0.1 -0.1)">
       <use xlink:href="#DejaVuSans-30"/>
       <use xlink:href="#DejaVuSans-2e" x="63.623047"/>
       <use xlink:href="#DejaVuSans-30" x="95.410156"/>
       <use xlink:href="#DejaVuSans-30" x="159.033203"/>
      </g>
     </g>
    </g>
    <g id="ytick_6">
     <g id="line2d_12">
      <g>
       <use xlink:href="#m49c9ba0c35" x="54" y="118.570909" style="stroke: #000000; stroke-width: 0.8"/>
      </g>
     </g>
     <g id="text_12">
      <!-- 0.25 -->
      <g transform="translate(24.734375 122.370128)scale(0.1 -0.1)">
       <use xlink:href="#DejaVuSans-30"/>
       <use xlink:href="#DejaVuSans-2e" x="63.623047"/>
       <use xlink:href="#DejaVuSans-32" x="95.410156"/>
       <use xlink:href="#DejaVuSans-35" x="159.033203"/>
      </g>
     </g>
    </g>
    <g id="ytick_7">
     <g id="line2d_13">
      <g>
       <use xlink:href="#m49c9ba0c35" x="54" y="93.861818" style="stroke: #000000; stroke-width: 0.8"/>
      </g>
     </g>
     <g id="text_13">
      <!-- 0.50 -->
      <g transform="translate(24.734375 97.661037)scale(0.1 -0.1)">
       <use xlink:href="#DejaVuSans-30"/>
       <use xlink:href="#DejaVuSans-2e" x="63.623047"/>
       <use xlink:href="#DejaVuSans-35" x="95.410156"/>
       <use xlink:href="#DejaVuSans-30" x="159.033203"/>
      </g>
     </g>
    </g>
    <g id="ytick_8">
     <g id="line2d_14">
      <g>
       <use xlink:href="#m49c9ba0c35" x="54" y="69.152727" style="stroke: #000000; stroke-width: 0.8"/>
      </g>
     </g>
     <g id="text_14">
      <!-- 0.75 -->
      <g transform="translate(24.734375 72.951946)scale(0.1 -0.1)">
       <use xlink:href="#DejaVuSans-30"/>
       <use xlink:href="#DejaVuSans-2e" x="63.623047"/>
       <use xlink:href="#DejaVuSans-37" x="95.410156"/>
       <use xlink:href="#DejaVuSans-35" x="159.033203"/>
      </g>
     </g>
    </g>
    <g id="ytick_9">
     <g id="line2d_15">
      <g>
       <use xlink:href="#m49c9ba0c35" x="54" y="44.443636" style="stroke: #000000; stroke-width: 0.8"/>
      </g>
     </g>
     <g id="text_15">
      <!-- 1.00 -->
      <g transform="translate(24.734375 48.242855)scale(0.1 -0.1)">
       <use xlink:href="#DejaVuSans-31"/>
       <use xlink:href="#DejaVuSans-2e" x="63.623047"/>
       <use xlink:href="#DejaVuSans-30" x="95.410156"/>
       <use xlink:href="#DejaVuSans-30" x="159.033203"/>
      </g>
     </g>
    </g>
   </g>
   <g id="LineCollection_1">
    <path d="M 69.218182 143.28 
L 69.218182 44.443636 
" clip-path="url(#p0de1ff358d)" style="fill: none; stroke: #1f77b4; stroke-width: 1.5"/>
    <path d="M 72.292562 143.28 
L 72.292562 49.281032 
" clip-path="url(#p0de1ff358d)" style="fill: none; stroke: #1f77b4; stroke-width: 1.5"/>
    <path d="M 75.366942 143.28 
L 75.366942 63.319702 
" clip-path="url(#p0de1ff358d)" style="fill: none; stroke: #1f77b4; stroke-width: 1.5"/>
    <path d="M 78.441322 143.28 
L 78.441322 85.185443 
" clip-path="url(#p0de1ff358d)" style="fill: none; stroke: #1f77b4; stroke-width: 1.5"/>
    <path d="M 81.515702 143.28 
L 81.515702 112.737884 
" clip-path="url(#p0de1ff358d)" style="fill: none; stroke: #1f77b4; stroke-width: 1.5"/>
    <path d="M 84.590083 143.28 
L 84.590083 143.28 
" clip-path="url(#p0de1ff358d)" style="fill: none; stroke: #1f77b4; stroke-width: 1.5"/>
    <path d="M 87.664463 143.28 
L 87.664463 173.822116 
" clip-path="url(#p0de1ff358d)" style="fill: none; stroke: #1f77b4; stroke-width: 1.5"/>
    <path d="M 90.738843 143.28 
L 90.738843 201.374557 
" clip-path="url(#p0de1ff358d)" style="fill: none; stroke: #1f77b4; stroke-width: 1.5"/>
    <path d="M 93.813223 143.28 
L 93.813223 223.240298 
" clip-path="url(#p0de1ff358d)" style="fill: none; stroke: #1f77b4; stroke-width: 1.5"/>
    <path d="M 96.887603 143.28 
L 96.887603 237.278968 
" clip-path="url(#p0de1ff358d)" style="fill: none; stroke: #1f77b4; stroke-width: 1.5"/>
    <path d="M 99.961983 143.28 
L 99.961983 242.116364 
" clip-path="url(#p0de1ff358d)" style="fill: none; stroke: #1f77b4; stroke-width: 1.5"/>
    <path d="M 103.036364 143.28 
L 103.036364 237.278968 
" clip-path="url(#p0de1ff358d)" style="fill: none; stroke: #1f77b4; stroke-width: 1.5"/>
    <path d="M 106.110744 143.28 
L 106.110744 223.240298 
" clip-path="url(#p0de1ff358d)" style="fill: none; stroke: #1f77b4; stroke-width: 1.5"/>
    <path d="M 109.185124 143.28 
L 109.185124 201.374557 
" clip-path="url(#p0de1ff358d)" style="fill: none; stroke: #1f77b4; stroke-width: 1.5"/>
    <path d="M 112.259504 143.28 
L 112.259504 173.822116 
" clip-path="url(#p0de1ff358d)" style="fill: none; stroke: #1f77b4; stroke-width: 1.5"/>
    <path d="M 115.333884 143.28 
L 115.333884 143.28 
" clip-path="url(#p0de1ff358d)" style="fill: none; stroke: #1f77b4; stroke-width: 1.5"/>
    <path d="M 118.408264 143.28 
L 118.408264 112.737884 
" clip-path="url(#p0de1ff358d)" style="fill: none; stroke: #1f77b4; stroke-width: 1.5"/>
    <path d="M 121.482645 143.28 
L 121.482645 85.185443 
" clip-path="url(#p0de1ff358d)" style="fill: none; stroke: #1f77b4; stroke-width: 1.5"/>
    <path d="M 124.557025 143.28 
L 124.557025 63.319702 
" clip-path="url(#p0de1ff358d)" style="fill: none; stroke: #1f77b4; stroke-width: 1.5"/>
    <path d="M 127.631405 143.28 
L 127.631405 49.281032 
" clip-path="url(#p0de1ff358d)" style="fill: none; stroke: #1f77b4; stroke-width: 1.5"/>
    <path d="M 130.705785 143.28 
L 130.705785 44.443636 
" clip-path="url(#p0de1ff358d)" style="fill: none; stroke: #1f77b4; stroke-width: 1.5"/>
    <path d="M 133.780165 143.28 
L 133.780165 49.281032 
" clip-path="url(#p0de1ff358d)" style="fill: none; stroke: #1f77b4; stroke-width: 1.5"/>
    <path d="M 136.854545 143.28 
L 136.854545 63.319702 
" clip-path="url(#p0de1ff358d)" style="fill: none; stroke: #1f77b4; stroke-width: 1.5"/>
    <path d="M 139.928926 143.28 
L 139.928926 85.185443 
" clip-path="url(#p0de1ff358d)" style="fill: none; stroke: #1f77b4; stroke-width: 1.5"/>
    <path d="M 143.003306 143.28 
L 143.003306 112.737884 
" clip-path="url(#p0de1ff358d)" style="fill: none; stroke: #1f77b4; stroke-width: 1.5"/>
    <path d="M 146.077686 143.28 
L 146.077686 143.28 
" clip-path="url(#p0de1ff358d)" style="fill: none; stroke: #1f77b4; stroke-width: 1.5"/>
    <path d="M 149.152066 143.28 
L 149.152066 173.822116 
" clip-path="url(#p0de1ff358d)" style="fill: none; stroke: #1f77b4; stroke-width: 1.5"/>
    <path d="M 152.226446 143.28 
L 152.226446 201.374557 
" clip-path="url(#p0de1ff358d)" style="fill: none; stroke: #1f77b4; stroke-width: 1.5"/>
    <path d="M 155.300826 143.28 
L 155.300826 223.240298 
" clip-path="url(#p0de1ff358d)" style="fill: none; stroke: #1f77b4; stroke-width: 1.5"/>
    <path d="M 158.375207 143.28 
L 158.375207 237.278968 
" clip-path="url(#p0de1ff358d)" style="fill: none; stroke: #1f77b4; stroke-width: 1.5"/>
    <path d="M 161.449587 143.28 
L 161.449587 242.116364 
" clip-path="url(#p0de1ff358d)" style="fill: none; stroke: #1f77b4; stroke-width: 1.5"/>
    <path d="M 164.523967 143.28 
L 164.523967 237.278968 
" clip-path="url(#p0de1ff358d)" style="fill: none; stroke: #1f77b4; stroke-width: 1.5"/>
    <path d="M 167.598347 143.28 
L 167.598347 223.240298 
" clip-path="url(#p0de1ff358d)" style="fill: none; stroke: #1f77b4; stroke-width: 1.5"/>
    <path d="M 170.672727 143.28 
L 170.672727 201.374557 
" clip-path="url(#p0de1ff358d)" style="fill: none; stroke: #1f77b4; stroke-width: 1.5"/>
    <path d="M 173.747107 143.28 
L 173.747107 173.822116 
" clip-path="url(#p0de1ff358d)" style="fill: none; stroke: #1f77b4; stroke-width: 1.5"/>
    <path d="M 176.821488 143.28 
L 176.821488 143.28 
" clip-path="url(#p0de1ff358d)" style="fill: none; stroke: #1f77b4; stroke-width: 1.5"/>
    <path d="M 179.895868 143.28 
L 179.895868 112.737884 
" clip-path="url(#p0de1ff358d)" style="fill: none; stroke: #1f77b4; stroke-width: 1.5"/>
    <path d="M 182.970248 143.28 
L 182.970248 85.185443 
" clip-path="url(#p0de1ff358d)" style="fill: none; stroke: #1f77b4; stroke-width: 1.5"/>
    <path d="M 186.044628 143.28 
L 186.044628 63.319702 
" clip-path="url(#p0de1ff358d)" style="fill: none; stroke: #1f77b4; stroke-width: 1.5"/>
    <path d="M 189.119008 143.28 
L 189.119008 49.281032 
" clip-path="url(#p0de1ff358d)" style="fill: none; stroke: #1f77b4; stroke-width: 1.5"/>
    <path d="M 192.193388 143.28 
L 192.193388 44.443636 
" clip-path="url(#p0de1ff358d)" style="fill: none; stroke: #1f77b4; stroke-width: 1.5"/>
    <path d="M 195.267769 143.28 
L 195.267769 49.281032 
" clip-path="url(#p0de1ff358d)" style="fill: none; stroke: #1f77b4; stroke-width: 1.5"/>
    <path d="M 198.342149 143.28 
L 198.342149 63.319702 
" clip-path="url(#p0de1ff358d)" style="fill: none; stroke: #1f77b4; stroke-width: 1.5"/>
    <path d="M 201.416529 143.28 
L 201.416529 85.185443 
" clip-path="url(#p0de1ff358d)" style="fill: none; stroke: #1f77b4; stroke-width: 1.5"/>
    <path d="M 204.490909 143.28 
L 204.490909 112.737884 
" clip-path="url(#p0de1ff358d)" style="fill: none; stroke: #1f77b4; stroke-width: 1.5"/>
    <path d="M 207.565289 143.28 
L 207.565289 143.28 
" clip-path="url(#p0de1ff358d)" style="fill: none; stroke: #1f77b4; stroke-width: 1.5"/>
    <path d="M 210.639669 143.28 
L 210.639669 173.822116 
" clip-path="url(#p0de1ff358d)" style="fill: none; stroke: #1f77b4; stroke-width: 1.5"/>
    <path d="M 213.71405 143.28 
L 213.71405 201.374557 
" clip-path="url(#p0de1ff358d)" style="fill: none; stroke: #1f77b4; stroke-width: 1.5"/>
    <path d="M 216.78843 143.28 
L 216.78843 223.240298 
" clip-path="url(#p0de1ff358d)" style="fill: none; stroke: #1f77b4; stroke-width: 1.5"/>
    <path d="M 219.86281 143.28 
L 219.86281 237.278968 
" clip-path="url(#p0de1ff358d)" style="fill: none; stroke: #1f77b4; stroke-width: 1.5"/>
    <path d="M 222.93719 143.28 
L 222.93719 242.116364 
" clip-path="url(#p0de1ff358d)" style="fill: none; stroke: #1f77b4; stroke-width: 1.5"/>
    <path d="M 226.01157 143.28 
L 226.01157 237.278968 
" clip-path="url(#p0de1ff358d)" style="fill: none; stroke: #1f77b4; stroke-width: 1.5"/>
    <path d="M 229.08595 143.28 
L 229.08595 223.240298 
" clip-path="url(#p0de1ff358d)" style="fill: none; stroke: #1f77b4; stroke-width: 1.5"/>
    <path d="M 232.160331 143.28 
L 232.160331 201.374557 
" clip-path="url(#p0de1ff358d)" style="fill: none; stroke: #1f77b4; stroke-width: 1.5"/>
    <path d="M 235.234711 143.28 
L 235.234711 173.822116 
" clip-path="url(#p0de1ff358d)" style="fill: none; stroke: #1f77b4; stroke-width: 1.5"/>
    <path d="M 238.309091 143.28 
L 238.309091 143.28 
" clip-path="url(#p0de1ff358d)" style="fill: none; stroke: #1f77b4; stroke-width: 1.5"/>
    <path d="M 241.383471 143.28 
L 241.383471 112.737884 
" clip-path="url(#p0de1ff358d)" style="fill: none; stroke: #1f77b4; stroke-width: 1.5"/>
    <path d="M 244.457851 143.28 
L 244.457851 85.185443 
" clip-path="url(#p0de1ff358d)" style="fill: none; stroke: #1f77b4; stroke-width: 1.5"/>
    <path d="M 247.532231 143.28 
L 247.532231 63.319702 
" clip-path="url(#p0de1ff358d)" style="fill: none; stroke: #1f77b4; stroke-width: 1.5"/>
    <path d="M 250.606612 143.28 
L 250.606612 49.281032 
" clip-path="url(#p0de1ff358d)" style="fill: none; stroke: #1f77b4; stroke-width: 1.5"/>
    <path d="M 253.680992 143.28 
L 253.680992 44.443636 
" clip-path="url(#p0de1ff358d)" style="fill: none; stroke: #1f77b4; stroke-width: 1.5"/>
    <path d="M 256.755372 143.28 
L 256.755372 49.281032 
" clip-path="url(#p0de1ff358d)" style="fill: none; stroke: #1f77b4; stroke-width: 1.5"/>
    <path d="M 259.829752 143.28 
L 259.829752 63.319702 
" clip-path="url(#p0de1ff358d)" style="fill: none; stroke: #1f77b4; stroke-width: 1.5"/>
    <path d="M 262.904132 143.28 
L 262.904132 85.185443 
" clip-path="url(#p0de1ff358d)" style="fill: none; stroke: #1f77b4; stroke-width: 1.5"/>
    <path d="M 265.978512 143.28 
L 265.978512 112.737884 
" clip-path="url(#p0de1ff358d)" style="fill: none; stroke: #1f77b4; stroke-width: 1.5"/>
    <path d="M 269.052893 143.28 
L 269.052893 143.28 
" clip-path="url(#p0de1ff358d)" style="fill: none; stroke: #1f77b4; stroke-width: 1.5"/>
    <path d="M 272.127273 143.28 
L 272.127273 173.822116 
" clip-path="url(#p0de1ff358d)" style="fill: none; stroke: #1f77b4; stroke-width: 1.5"/>
    <path d="M 275.201653 143.28 
L 275.201653 201.374557 
" clip-path="url(#p0de1ff358d)" style="fill: none; stroke: #1f77b4; stroke-width: 1.5"/>
    <path d="M 278.276033 143.28 
L 278.276033 223.240298 
" clip-path="url(#p0de1ff358d)" style="fill: none; stroke: #1f77b4; stroke-width: 1.5"/>
    <path d="M 281.350413 143.28 
L 281.350413 237.278968 
" clip-path="url(#p0de1ff358d)" style="fill: none; stroke: #1f77b4; stroke-width: 1.5"/>
    <path d="M 284.424793 143.28 
L 284.424793 242.116364 
" clip-path="url(#p0de1ff358d)" style="fill: none; stroke: #1f77b4; stroke-width: 1.5"/>
    <path d="M 287.499174 143.28 
L 287.499174 237.278968 
" clip-path="url(#p0de1ff358d)" style="fill: none; stroke: #1f77b4; stroke-width: 1.5"/>
    <path d="M 290.573554 143.28 
L 290.573554 223.240298 
" clip-path="url(#p0de1ff358d)" style="fill: none; stroke: #1f77b4; stroke-width: 1.5"/>
    <path d="M 293.647934 143.28 
L 293.647934 201.374557 
" clip-path="url(#p0de1ff358d)" style="fill: none; stroke: #1f77b4; stroke-width: 1.5"/>
    <path d="M 296.722314 143.28 
L 296.722314 173.822116 
" clip-path="url(#p0de1ff358d)" style="fill: none; stroke: #1f77b4; stroke-width: 1.5"/>
    <path d="M 299.796694 143.28 
L 299.796694 143.28 
" clip-path="url(#p0de1ff358d)" style="fill: none; stroke: #1f77b4; stroke-width: 1.5"/>
    <path d="M 302.871074 143.28 
L 302.871074 112.737884 
" clip-path="url(#p0de1ff358d)" style="fill: none; stroke: #1f77b4; stroke-width: 1.5"/>
    <path d="M 305.945455 143.28 
L 305.945455 85.185443 
" clip-path="url(#p0de1ff358d)" style="fill: none; stroke: #1f77b4; stroke-width: 1.5"/>
    <path d="M 309.019835 143.28 
L 309.019835 63.319702 
" clip-path="url(#p0de1ff358d)" style="fill: none; stroke: #1f77b4; stroke-width: 1.5"/>
    <path d="M 312.094215 143.28 
L 312.094215 49.281032 
" clip-path="url(#p0de1ff358d)" style="fill: none; stroke: #1f77b4; stroke-width: 1.5"/>
    <path d="M 315.168595 143.28 
L 315.168595 44.443636 
" clip-path="url(#p0de1ff358d)" style="fill: none; stroke: #1f77b4; stroke-width: 1.5"/>
    <path d="M 318.242975 143.28 
L 318.242975 49.281032 
" clip-path="url(#p0de1ff358d)" style="fill: none; stroke: #1f77b4; stroke-width: 1.5"/>
    <path d="M 321.317355 143.28 
L 321.317355 63.319702 
" clip-path="url(#p0de1ff358d)" style="fill: none; stroke: #1f77b4; stroke-width: 1.5"/>
    <path d="M 324.391736 143.28 
L 324.391736 85.185443 
" clip-path="url(#p0de1ff358d)" style="fill: none; stroke: #1f77b4; stroke-width: 1.5"/>
    <path d="M 327.466116 143.28 
L 327.466116 112.737884 
" clip-path="url(#p0de1ff358d)" style="fill: none; stroke: #1f77b4; stroke-width: 1.5"/>
    <path d="M 330.540496 143.28 
L 330.540496 143.28 
" clip-path="url(#p0de1ff358d)" style="fill: none; stroke: #1f77b4; stroke-width: 1.5"/>
    <path d="M 333.614876 143.28 
L 333.614876 173.822116 
" clip-path="url(#p0de1ff358d)" style="fill: none; stroke: #1f77b4; stroke-width: 1.5"/>
    <path d="M 336.689256 143.28 
L 336.689256 201.374557 
" clip-path="url(#p0de1ff358d)" style="fill: none; stroke: #1f77b4; stroke-width: 1.5"/>
    <path d="M 339.763636 143.28 
L 339.763636 223.240298 
" clip-path="url(#p0de1ff358d)" style="fill: none; stroke: #1f77b4; stroke-width: 1.5"/>
    <path d="M 342.838017 143.28 
L 342.838017 237.278968 
" clip-path="url(#p0de1ff358d)" style="fill: none; stroke: #1f77b4; stroke-width: 1.5"/>
    <path d="M 345.912397 143.28 
L 345.912397 242.116364 
" clip-path="url(#p0de1ff358d)" style="fill: none; stroke: #1f77b4; stroke-width: 1.5"/>
    <path d="M 348.986777 143.28 
L 348.986777 237.278968 
" clip-path="url(#p0de1ff358d)" style="fill: none; stroke: #1f77b4; stroke-width: 1.5"/>
    <path d="M 352.061157 143.28 
L 352.061157 223.240298 
" clip-path="url(#p0de1ff358d)" style="fill: none; stroke: #1f77b4; stroke-width: 1.5"/>
    <path d="M 355.135537 143.28 
L 355.135537 201.374557 
" clip-path="url(#p0de1ff358d)" style="fill: none; stroke: #1f77b4; stroke-width: 1.5"/>
    <path d="M 358.209917 143.28 
L 358.209917 173.822116 
" clip-path="url(#p0de1ff358d)" style="fill: none; stroke: #1f77b4; stroke-width: 1.5"/>
    <path d="M 361.284298 143.28 
L 361.284298 143.28 
" clip-path="url(#p0de1ff358d)" style="fill: none; stroke: #1f77b4; stroke-width: 1.5"/>
    <path d="M 364.358678 143.28 
L 364.358678 112.737884 
" clip-path="url(#p0de1ff358d)" style="fill: none; stroke: #1f77b4; stroke-width: 1.5"/>
    <path d="M 367.433058 143.28 
L 367.433058 85.185443 
" clip-path="url(#p0de1ff358d)" style="fill: none; stroke: #1f77b4; stroke-width: 1.5"/>
    <path d="M 370.507438 143.28 
L 370.507438 63.319702 
" clip-path="url(#p0de1ff358d)" style="fill: none; stroke: #1f77b4; stroke-width: 1.5"/>
    <path d="M 373.581818 143.28 
L 373.581818 49.281032 
" clip-path="url(#p0de1ff358d)" style="fill: none; stroke: #1f77b4; stroke-width: 1.5"/>
   </g>
   <g id="line2d_16">
    <defs>
     <path id="mda080dbaa5" d="M 0 3 
C 0.795609 3 1.55874 2.683901 2.12132 2.12132 
C 2.683901 1.55874 3 0.795609 3 0 
C 3 -0.795609 2.683901 -1.55874 2.12132 -2.12132 
C 1.55874 -2.683901 0.795609 -3 0 -3 
C -0.795609 -3 -1.55874 -2.683901 -2.12132 -2.12132 
C -2.683901 -1.55874 -3 -0.795609 -3 0 
C -3 0.795609 -2.683901 1.55874 -2.12132 2.12132 
C -1.55874 2.683901 -0.795609 3 0 3 
z
" style="stroke: #1f77b4"/>
    </defs>
    <g clip-path="url(#p0de1ff358d)">
     <use xlink:href="#mda080dbaa5" x="69.218182" y="44.443636" style="fill: #1f77b4; stroke: #1f77b4"/>
     <use xlink:href="#mda080dbaa5" x="72.292562" y="49.281032" style="fill: #1f77b4; stroke: #1f77b4"/>
     <use xlink:href="#mda080dbaa5" x="75.366942" y="63.319702" style="fill: #1f77b4; stroke: #1f77b4"/>
     <use xlink:href="#mda080dbaa5" x="78.441322" y="85.185443" style="fill: #1f77b4; stroke: #1f77b4"/>
     <use xlink:href="#mda080dbaa5" x="81.515702" y="112.737884" style="fill: #1f77b4; stroke: #1f77b4"/>
     <use xlink:href="#mda080dbaa5" x="84.590083" y="143.28" style="fill: #1f77b4; stroke: #1f77b4"/>
     <use xlink:href="#mda080dbaa5" x="87.664463" y="173.822116" style="fill: #1f77b4; stroke: #1f77b4"/>
     <use xlink:href="#mda080dbaa5" x="90.738843" y="201.374557" style="fill: #1f77b4; stroke: #1f77b4"/>
     <use xlink:href="#mda080dbaa5" x="93.813223" y="223.240298" style="fill: #1f77b4; stroke: #1f77b4"/>
     <use xlink:href="#mda080dbaa5" x="96.887603" y="237.278968" style="fill: #1f77b4; stroke: #1f77b4"/>
     <use xlink:href="#mda080dbaa5" x="99.961983" y="242.116364" style="fill: #1f77b4; stroke: #1f77b4"/>
     <use xlink:href="#mda080dbaa5" x="103.036364" y="237.278968" style="fill: #1f77b4; stroke: #1f77b4"/>
     <use xlink:href="#mda080dbaa5" x="106.110744" y="223.240298" style="fill: #1f77b4; stroke: #1f77b4"/>
     <use xlink:href="#mda080dbaa5" x="109.185124" y="201.374557" style="fill: #1f77b4; stroke: #1f77b4"/>
     <use xlink:href="#mda080dbaa5" x="112.259504" y="173.822116" style="fill: #1f77b4; stroke: #1f77b4"/>
     <use xlink:href="#mda080dbaa5" x="115.333884" y="143.28" style="fill: #1f77b4; stroke: #1f77b4"/>
     <use xlink:href="#mda080dbaa5" x="118.408264" y="112.737884" style="fill: #1f77b4; stroke: #1f77b4"/>
     <use xlink:href="#mda080dbaa5" x="121.482645" y="85.185443" style="fill: #1f77b4; stroke: #1f77b4"/>
     <use xlink:href="#mda080dbaa5" x="124.557025" y="63.319702" style="fill: #1f77b4; stroke: #1f77b4"/>
     <use xlink:href="#mda080dbaa5" x="127.631405" y="49.281032" style="fill: #1f77b4; stroke: #1f77b4"/>
     <use xlink:href="#mda080dbaa5" x="130.705785" y="44.443636" style="fill: #1f77b4; stroke: #1f77b4"/>
     <use xlink:href="#mda080dbaa5" x="133.780165" y="49.281032" style="fill: #1f77b4; stroke: #1f77b4"/>
     <use xlink:href="#mda080dbaa5" x="136.854545" y="63.319702" style="fill: #1f77b4; stroke: #1f77b4"/>
     <use xlink:href="#mda080dbaa5" x="139.928926" y="85.185443" style="fill: #1f77b4; stroke: #1f77b4"/>
     <use xlink:href="#mda080dbaa5" x="143.003306" y="112.737884" style="fill: #1f77b4; stroke: #1f77b4"/>
     <use xlink:href="#mda080dbaa5" x="146.077686" y="143.28" style="fill: #1f77b4; stroke: #1f77b4"/>
     <use xlink:href="#mda080dbaa5" x="149.152066" y="173.822116" style="fill: #1f77b4; stroke: #1f77b4"/>
     <use xlink:href="#mda080dbaa5" x="152.226446" y="201.374557" style="fill: #1f77b4; stroke: #1f77b4"/>
     <use xlink:href="#mda080dbaa5" x="155.300826" y="223.240298" style="fill: #1f77b4; stroke: #1f77b4"/>
     <use xlink:href="#mda080dbaa5" x="158.375207" y="237.278968" style="fill: #1f77b4; stroke: #1f77b4"/>
     <use xlink:href="#mda080dbaa5" x="161.449587" y="242.116364" style="fill: #1f77b4; stroke: #1f77b4"/>
     <use xlink:href="#mda080dbaa5" x="164.523967" y="237.278968" style="fill: #1f77b4; stroke: #1f77b4"/>
     <use xlink:href="#mda080dbaa5" x="167.598347" y="223.240298" style="fill: #1f77b4; stroke: #1f77b4"/>
     <use xlink:href="#mda080dbaa5" x="170.672727" y="201.374557" style="fill: #1f77b4; stroke: #1f77b4"/>
     <use xlink:href="#mda080dbaa5" x="173.747107" y="173.822116" style="fill: #1f77b4; stroke: #1f77b4"/>
     <use xlink:href="#mda080dbaa5" x="176.821488" y="143.28" style="fill: #1f77b4; stroke: #1f77b4"/>
     <use xlink:href="#mda080dbaa5" x="179.895868" y="112.737884" style="fill: #1f77b4; stroke: #1f77b4"/>
     <use xlink:href="#mda080dbaa5" x="182.970248" y="85.185443" style="fill: #1f77b4; stroke: #1f77b4"/>
     <use xlink:href="#mda080dbaa5" x="186.044628" y="63.319702" style="fill: #1f77b4; stroke: #1f77b4"/>
     <use xlink:href="#mda080dbaa5" x="189.119008" y="49.281032" style="fill: #1f77b4; stroke: #1f77b4"/>
     <use xlink:href="#mda080dbaa5" x="192.193388" y="44.443636" style="fill: #1f77b4; stroke: #1f77b4"/>
     <use xlink:href="#mda080dbaa5" x="195.267769" y="49.281032" style="fill: #1f77b4; stroke: #1f77b4"/>
     <use xlink:href="#mda080dbaa5" x="198.342149" y="63.319702" style="fill: #1f77b4; stroke: #1f77b4"/>
     <use xlink:href="#mda080dbaa5" x="201.416529" y="85.185443" style="fill: #1f77b4; stroke: #1f77b4"/>
     <use xlink:href="#mda080dbaa5" x="204.490909" y="112.737884" style="fill: #1f77b4; stroke: #1f77b4"/>
     <use xlink:href="#mda080dbaa5" x="207.565289" y="143.28" style="fill: #1f77b4; stroke: #1f77b4"/>
     <use xlink:href="#mda080dbaa5" x="210.639669" y="173.822116" style="fill: #1f77b4; stroke: #1f77b4"/>
     <use xlink:href="#mda080dbaa5" x="213.71405" y="201.374557" style="fill: #1f77b4; stroke: #1f77b4"/>
     <use xlink:href="#mda080dbaa5" x="216.78843" y="223.240298" style="fill: #1f77b4; stroke: #1f77b4"/>
     <use xlink:href="#mda080dbaa5" x="219.86281" y="237.278968" style="fill: #1f77b4; stroke: #1f77b4"/>
     <use xlink:href="#mda080dbaa5" x="222.93719" y="242.116364" style="fill: #1f77b4; stroke: #1f77b4"/>
     <use xlink:href="#mda080dbaa5" x="226.01157" y="237.278968" style="fill: #1f77b4; stroke: #1f77b4"/>
     <use xlink:href="#mda080dbaa5" x="229.08595" y="223.240298" style="fill: #1f77b4; stroke: #1f77b4"/>
     <use xlink:href="#mda080dbaa5" x="232.160331" y="201.374557" style="fill: #1f77b4; stroke: #1f77b4"/>
     <use xlink:href="#mda080dbaa5" x="235.234711" y="173.822116" style="fill: #1f77b4; stroke: #1f77b4"/>
     <use xlink:href="#mda080dbaa5" x="238.309091" y="143.28" style="fill: #1f77b4; stroke: #1f77b4"/>
     <use xlink:href="#mda080dbaa5" x="241.383471" y="112.737884" style="fill: #1f77b4; stroke: #1f77b4"/>
     <use xlink:href="#mda080dbaa5" x="244.457851" y="85.185443" style="fill: #1f77b4; stroke: #1f77b4"/>
     <use xlink:href="#mda080dbaa5" x="247.532231" y="63.319702" style="fill: #1f77b4; stroke: #1f77b4"/>
     <use xlink:href="#mda080dbaa5" x="250.606612" y="49.281032" style="fill: #1f77b4; stroke: #1f77b4"/>
     <use xlink:href="#mda080dbaa5" x="253.680992" y="44.443636" style="fill: #1f77b4; stroke: #1f77b4"/>
     <use xlink:href="#mda080dbaa5" x="256.755372" y="49.281032" style="fill: #1f77b4; stroke: #1f77b4"/>
     <use xlink:href="#mda080dbaa5" x="259.829752" y="63.319702" style="fill: #1f77b4; stroke: #1f77b4"/>
     <use xlink:href="#mda080dbaa5" x="262.904132" y="85.185443" style="fill: #1f77b4; stroke: #1f77b4"/>
     <use xlink:href="#mda080dbaa5" x="265.978512" y="112.737884" style="fill: #1f77b4; stroke: #1f77b4"/>
     <use xlink:href="#mda080dbaa5" x="269.052893" y="143.28" style="fill: #1f77b4; stroke: #1f77b4"/>
     <use xlink:href="#mda080dbaa5" x="272.127273" y="173.822116" style="fill: #1f77b4; stroke: #1f77b4"/>
     <use xlink:href="#mda080dbaa5" x="275.201653" y="201.374557" style="fill: #1f77b4; stroke: #1f77b4"/>
     <use xlink:href="#mda080dbaa5" x="278.276033" y="223.240298" style="fill: #1f77b4; stroke: #1f77b4"/>
     <use xlink:href="#mda080dbaa5" x="281.350413" y="237.278968" style="fill: #1f77b4; stroke: #1f77b4"/>
     <use xlink:href="#mda080dbaa5" x="284.424793" y="242.116364" style="fill: #1f77b4; stroke: #1f77b4"/>
     <use xlink:href="#mda080dbaa5" x="287.499174" y="237.278968" style="fill: #1f77b4; stroke: #1f77b4"/>
     <use xlink:href="#mda080dbaa5" x="290.573554" y="223.240298" style="fill: #1f77b4; stroke: #1f77b4"/>
     <use xlink:href="#mda080dbaa5" x="293.647934" y="201.374557" style="fill: #1f77b4; stroke: #1f77b4"/>
     <use xlink:href="#mda080dbaa5" x="296.722314" y="173.822116" style="fill: #1f77b4; stroke: #1f77b4"/>
     <use xlink:href="#mda080dbaa5" x="299.796694" y="143.28" style="fill: #1f77b4; stroke: #1f77b4"/>
     <use xlink:href="#mda080dbaa5" x="302.871074" y="112.737884" style="fill: #1f77b4; stroke: #1f77b4"/>
     <use xlink:href="#mda080dbaa5" x="305.945455" y="85.185443" style="fill: #1f77b4; stroke: #1f77b4"/>
     <use xlink:href="#mda080dbaa5" x="309.019835" y="63.319702" style="fill: #1f77b4; stroke: #1f77b4"/>
     <use xlink:href="#mda080dbaa5" x="312.094215" y="49.281032" style="fill: #1f77b4; stroke: #1f77b4"/>
     <use xlink:href="#mda080dbaa5" x="315.168595" y="44.443636" style="fill: #1f77b4; stroke: #1f77b4"/>
     <use xlink:href="#mda080dbaa5" x="318.242975" y="49.281032" style="fill: #1f77b4; stroke: #1f77b4"/>
     <use xlink:href="#mda080dbaa5" x="321.317355" y="63.319702" style="fill: #1f77b4; stroke: #1f77b4"/>
     <use xlink:href="#mda080dbaa5" x="324.391736" y="85.185443" style="fill: #1f77b4; stroke: #1f77b4"/>
     <use xlink:href="#mda080dbaa5" x="327.466116" y="112.737884" style="fill: #1f77b4; stroke: #1f77b4"/>
     <use xlink:href="#mda080dbaa5" x="330.540496" y="143.28" style="fill: #1f77b4; stroke: #1f77b4"/>
     <use xlink:href="#mda080dbaa5" x="333.614876" y="173.822116" style="fill: #1f77b4; stroke: #1f77b4"/>
     <use xlink:href="#mda080dbaa5" x="336.689256" y="201.374557" style="fill: #1f77b4; stroke: #1f77b4"/>
     <use xlink:href="#mda080dbaa5" x="339.763636" y="223.240298" style="fill: #1f77b4; stroke: #1f77b4"/>
     <use xlink:href="#mda080dbaa5" x="342.838017" y="237.278968" style="fill: #1f77b4; stroke: #1f77b4"/>
     <use xlink:href="#mda080dbaa5" x="345.912397" y="242.116364" style="fill: #1f77b4; stroke: #1f77b4"/>
     <use xlink:href="#mda080dbaa5" x="348.986777" y="237.278968" style="fill: #1f77b4; stroke: #1f77b4"/>
     <use xlink:href="#mda080dbaa5" x="352.061157" y="223.240298" style="fill: #1f77b4; stroke: #1f77b4"/>
     <use xlink:href="#mda080dbaa5" x="355.135537" y="201.374557" style="fill: #1f77b4; stroke: #1f77b4"/>
     <use xlink:href="#mda080dbaa5" x="358.209917" y="173.822116" style="fill: #1f77b4; stroke: #1f77b4"/>
     <use xlink:href="#mda080dbaa5" x="361.284298" y="143.28" style="fill: #1f77b4; stroke: #1f77b4"/>
     <use xlink:href="#mda080dbaa5" x="364.358678" y="112.737884" style="fill: #1f77b4; stroke: #1f77b4"/>
     <use xlink:href="#mda080dbaa5" x="367.433058" y="85.185443" style="fill: #1f77b4; stroke: #1f77b4"/>
     <use xlink:href="#mda080dbaa5" x="370.507438" y="63.319702" style="fill: #1f77b4; stroke: #1f77b4"/>
     <use xlink:href="#mda080dbaa5" x="373.581818" y="49.281032" style="fill: #1f77b4; stroke: #1f77b4"/>
    </g>
   </g>
   <g id="line2d_17">
    <path d="M 69.218182 143.28 
L 373.581818 143.28 
" clip-path="url(#p0de1ff358d)" style="fill: none; stroke: #d62728; stroke-width: 1.5; stroke-linecap: square"/>
   </g>
   <g id="patch_3">
    <path d="M 54 252 
L 54 34.56 
" style="fill: none; stroke: #000000; stroke-width: 0.8; stroke-linejoin: miter; stroke-linecap: square"/>
   </g>
   <g id="patch_4">
    <path d="M 388.8 252 
L 388.8 34.56 
" style="fill: none; stroke: #000000; stroke-width: 0.8; stroke-linejoin: miter; stroke-linecap: square"/>
   </g>
   <g id="patch_5">
    <path d="M 54 252 
L 388.8 252 
" style="fill: none; stroke: #000000; stroke-width: 0.8; stroke-linejoin: miter; stroke-linecap: square"/>
   </g>
   <g id="patch_6">
    <path d="M 54 34.56 
L 388.8 34.56 
" style="fill: none; stroke: #000000; stroke-width: 0.8; stroke-linejoin: miter; stroke-linecap: square"/>
   </g>
  </g>
 </g>
 <defs>
  <clipPath id="p0de1ff358d">
   <rect x="54" y="34.56" width="334.8" height="217.44"/>
  </clipPath>
 </defs>
</svg>
