<?xml version="1.0" encoding="utf-8" standalone="no"?>
<!DOCTYPE svg PUBLIC "-//W3C//DTD SVG 1.1//EN"
  "http://www.w3.org/Graphics/SVG/1.1/DTD/svg11.dtd">
<svg xmlns:xlink="http://www.w3.org/1999/xlink" width="432pt" height="288pt" viewBox="0 0 432 288" xmlns="http://www.w3.org/2000/svg" version="1.1">
 <metadata>
  <rdf:RDF xmlns:dc="http://purl.org/dc/elements/1.1/" xmlns:cc="http://creativecommons.org/ns#" xmlns:rdf="http://www.w3.org/1999/02/22-rdf-syntax-ns#">
   <cc:Work>
    <dc:type rdf:resource="http://purl.org/dc/dcmitype/StillImage"/>
    <dc:date>2022-09-16T10:23:07.790884</dc:date>
    <dc:format>image/svg+xml</dc:format>
    <dc:creator>
     <cc:Agent>
      <dc:title>Matplotlib v3.5.1, https://matplotlib.org/</dc:title>
     </cc:Agent>
    </dc:creator>
   </cc:Work>
  </rdf:RDF>
 </metadata>
 <defs>
  <style type="text/css">*{stroke-linejoin: round; stroke-linecap: butt}</style>
 </defs>
 <g id="figure_1">
  <g id="patch_1">
   <path d="M 0 288 
L 432 288 
L 432 0 
L 0 0 
z
" style="fill: #ffffff"/>
  </g>
  <g id="axes_1">
   <g id="patch_2">
    <path d="M 54 252 
L 388.8 252 
L 388.8 34.56 
L 54 34.56 
z
" style="fill: #ffffff"/>
   </g>
   <g id="matplotlib.axis_1">
    <g id="xtick_1">
     <g id="line2d_1">
      <defs>
       <path id="md83629890c" d="M 0 0 
L 0 3.5 
" style="stroke: #000000; stroke-width: 0.8"/>
      </defs>
      <g>
       <use xlink:href="#md83629890c" x="69.218182" y="252" style="stroke: #000000; stroke-width: 0.8"/>
      </g>
     </g>
     <g id="text_1">
      <!-- 0 -->
      <g transform="translate(66.036932 266.598437)scale(0.1 -0.1)">
       <defs>
        <path id="DejaVuSans-30" d="M 2034 4250 
Q 1547 4250 1301 3770 
Q 1056 3291 1056 2328 
Q 1056 1369 1301 889 
Q 1547 409 2034 409 
Q 2525 409 2770 889 
Q 3016 1369 3016 2328 
Q 3016 3291 2770 3770 
Q 2525 4250 2034 4250 
z
M 2034 4750 
Q 2819 4750 3233 4129 
Q 3647 3509 3647 2328 
Q 3647 1150 3233 529 
Q 2819 -91 2034 -91 
Q 1250 -91 836 529 
Q 422 1150 422 2328 
Q 422 3509 836 4129 
Q 1250 4750 2034 4750 
z
" transform="scale(0.015625)"/>
       </defs>
       <use xlink:href="#DejaVuSans-30"/>
      </g>
     </g>
    </g>
    <g id="xtick_2">
     <g id="line2d_2">
      <g>
       <use xlink:href="#md83629890c" x="130.705785" y="252" style="stroke: #000000; stroke-width: 0.8"/>
      </g>
     </g>
     <g id="text_2">
      <!-- 20 -->
      <g transform="translate(124.343285 266.598437)scale(0.1 -0.1)">
       <defs>
        <path id="DejaVuSans-32" d="M 1228 531 
L 3431 531 
L 3431 0 
L 469 0 
L 469 531 
Q 828 903 1448 1529 
Q 2069 2156 2228 2338 
Q 2531 2678 2651 2914 
Q 2772 3150 2772 3378 
Q 2772 3750 2511 3984 
Q 2250 4219 1831 4219 
Q 1534 4219 1204 4116 
Q 875 4013 500 3803 
L 500 4441 
Q 881 4594 1212 4672 
Q 1544 4750 1819 4750 
Q 2544 4750 2975 4387 
Q 3406 4025 3406 3419 
Q 3406 3131 3298 2873 
Q 3191 2616 2906 2266 
Q 2828 2175 2409 1742 
Q 1991 1309 1228 531 
z
" transform="scale(0.015625)"/>
       </defs>
       <use xlink:href="#DejaVuSans-32"/>
       <use xlink:href="#DejaVuSans-30" x="63.623047"/>
      </g>
     </g>
    </g>
    <g id="xtick_3">
     <g id="line2d_3">
      <g>
       <use xlink:href="#md83629890c" x="192.193388" y="252" style="stroke: #000000; stroke-width: 0.8"/>
      </g>
     </g>
     <g id="text_3">
      <!-- 40 -->
      <g transform="translate(185.830888 266.598437)scale(0.1 -0.1)">
       <defs>
        <path id="DejaVuSans-34" d="M 2419 4116 
L 825 1625 
L 2419 1625 
L 2419 4116 
z
M 2253 4666 
L 3047 4666 
L 3047 1625 
L 3713 1625 
L 3713 1100 
L 3047 1100 
L 3047 0 
L 2419 0 
L 2419 1100 
L 313 1100 
L 313 1709 
L 2253 4666 
z
" transform="scale(0.015625)"/>
       </defs>
       <use xlink:href="#DejaVuSans-34"/>
       <use xlink:href="#DejaVuSans-30" x="63.623047"/>
      </g>
     </g>
    </g>
    <g id="xtick_4">
     <g id="line2d_4">
      <g>
       <use xlink:href="#md83629890c" x="253.680992" y="252" style="stroke: #000000; stroke-width: 0.8"/>
      </g>
     </g>
     <g id="text_4">
      <!-- 60 -->
      <g transform="translate(247.318492 266.598437)scale(0.1 -0.1)">
       <defs>
        <path id="DejaVuSans-36" d="M 2113 2584 
Q 1688 2584 1439 2293 
Q 1191 2003 1191 1497 
Q 1191 994 1439 701 
Q 1688 409 2113 409 
Q 2538 409 2786 701 
Q 3034 994 3034 1497 
Q 3034 2003 2786 2293 
Q 2538 2584 2113 2584 
z
M 3366 4563 
L 3366 3988 
Q 3128 4100 2886 4159 
Q 2644 4219 2406 4219 
Q 1781 4219 1451 3797 
Q 1122 3375 1075 2522 
Q 1259 2794 1537 2939 
Q 1816 3084 2150 3084 
Q 2853 3084 3261 2657 
Q 3669 2231 3669 1497 
Q 3669 778 3244 343 
Q 2819 -91 2113 -91 
Q 1303 -91 875 529 
Q 447 1150 447 2328 
Q 447 3434 972 4092 
Q 1497 4750 2381 4750 
Q 2619 4750 2861 4703 
Q 3103 4656 3366 4563 
z
" transform="scale(0.015625)"/>
       </defs>
       <use xlink:href="#DejaVuSans-36"/>
       <use xlink:href="#DejaVuSans-30" x="63.623047"/>
      </g>
     </g>
    </g>
    <g id="xtick_5">
     <g id="line2d_5">
      <g>
       <use xlink:href="#md83629890c" x="315.168595" y="252" style="stroke: #000000; stroke-width: 0.8"/>
      </g>
     </g>
     <g id="text_5">
      <!-- 80 -->
      <g transform="translate(308.806095 266.598437)scale(0.1 -0.1)">
       <defs>
        <path id="DejaVuSans-38" d="M 2034 2216 
Q 1584 2216 1326 1975 
Q 1069 1734 1069 1313 
Q 1069 891 1326 650 
Q 1584 409 2034 409 
Q 2484 409 2743 651 
Q 3003 894 3003 1313 
Q 3003 1734 2745 1975 
Q 2488 2216 2034 2216 
z
M 1403 2484 
Q 997 2584 770 2862 
Q 544 3141 544 3541 
Q 544 4100 942 4425 
Q 1341 4750 2034 4750 
Q 2731 4750 3128 4425 
Q 3525 4100 3525 3541 
Q 3525 3141 3298 2862 
Q 3072 2584 2669 2484 
Q 3125 2378 3379 2068 
Q 3634 1759 3634 1313 
Q 3634 634 3220 271 
Q 2806 -91 2034 -91 
Q 1263 -91 848 271 
Q 434 634 434 1313 
Q 434 1759 690 2068 
Q 947 2378 1403 2484 
z
M 1172 3481 
Q 1172 3119 1398 2916 
Q 1625 2713 2034 2713 
Q 2441 2713 2670 2916 
Q 2900 3119 2900 3481 
Q 2900 3844 2670 4047 
Q 2441 4250 2034 4250 
Q 1625 4250 1398 4047 
Q 1172 3844 1172 3481 
z
" transform="scale(0.015625)"/>
       </defs>
       <use xlink:href="#DejaVuSans-38"/>
       <use xlink:href="#DejaVuSans-30" x="63.623047"/>
      </g>
     </g>
    </g>
    <g id="xtick_6">
     <g id="line2d_6">
      <g>
       <use xlink:href="#md83629890c" x="376.656198" y="252" style="stroke: #000000; stroke-width: 0.8"/>
      </g>
     </g>
     <g id="text_6">
      <!-- 100 -->
      <g transform="translate(367.112448 266.598437)scale(0.1 -0.1)">
       <defs>
        <path id="DejaVuSans-31" d="M 794 531 
L 1825 531 
L 1825 4091 
L 703 3866 
L 703 4441 
L 1819 4666 
L 2450 4666 
L 2450 531 
L 3481 531 
L 3481 0 
L 794 0 
L 794 531 
z
" transform="scale(0.015625)"/>
       </defs>
       <use xlink:href="#DejaVuSans-31"/>
       <use xlink:href="#DejaVuSans-30" x="63.623047"/>
       <use xlink:href="#DejaVuSans-30" x="127.246094"/>
      </g>
     </g>
    </g>
   </g>
   <g id="matplotlib.axis_2">
    <g id="ytick_1">
     <g id="line2d_7">
      <defs>
       <path id="m69027e1d92" d="M 0 0 
L -3.5 0 
" style="stroke: #000000; stroke-width: 0.8"/>
      </defs>
      <g>
       <use xlink:href="#m69027e1d92" x="54" y="235.800468" style="stroke: #000000; stroke-width: 0.8"/>
      </g>
     </g>
     <g id="text_7">
      <!-- −5000 -->
      <g transform="translate(13.170313 239.599687)scale(0.1 -0.1)">
       <defs>
        <path id="DejaVuSans-2212" d="M 678 2272 
L 4684 2272 
L 4684 1741 
L 678 1741 
L 678 2272 
z
" transform="scale(0.015625)"/>
        <path id="DejaVuSans-35" d="M 691 4666 
L 3169 4666 
L 3169 4134 
L 1269 4134 
L 1269 2991 
Q 1406 3038 1543 3061 
Q 1681 3084 1819 3084 
Q 2600 3084 3056 2656 
Q 3513 2228 3513 1497 
Q 3513 744 3044 326 
Q 2575 -91 1722 -91 
Q 1428 -91 1123 -41 
Q 819 9 494 109 
L 494 744 
Q 775 591 1075 516 
Q 1375 441 1709 441 
Q 2250 441 2565 725 
Q 2881 1009 2881 1497 
Q 2881 1984 2565 2268 
Q 2250 2553 1709 2553 
Q 1456 2553 1204 2497 
Q 953 2441 691 2322 
L 691 4666 
z
" transform="scale(0.015625)"/>
       </defs>
       <use xlink:href="#DejaVuSans-2212"/>
       <use xlink:href="#DejaVuSans-35" x="83.789062"/>
       <use xlink:href="#DejaVuSans-30" x="147.412109"/>
       <use xlink:href="#DejaVuSans-30" x="211.035156"/>
       <use xlink:href="#DejaVuSans-30" x="274.658203"/>
      </g>
     </g>
    </g>
    <g id="ytick_2">
     <g id="line2d_8">
      <g>
       <use xlink:href="#m69027e1d92" x="54" y="207.517801" style="stroke: #000000; stroke-width: 0.8"/>
      </g>
     </g>
     <g id="text_8">
      <!-- −2500 -->
      <g transform="translate(13.170313 211.31702)scale(0.1 -0.1)">
       <use xlink:href="#DejaVuSans-2212"/>
       <use xlink:href="#DejaVuSans-32" x="83.789062"/>
       <use xlink:href="#DejaVuSans-35" x="147.412109"/>
       <use xlink:href="#DejaVuSans-30" x="211.035156"/>
       <use xlink:href="#DejaVuSans-30" x="274.658203"/>
      </g>
     </g>
    </g>
    <g id="ytick_3">
     <g id="line2d_9">
      <g>
       <use xlink:href="#m69027e1d92" x="54" y="179.235135" style="stroke: #000000; stroke-width: 0.8"/>
      </g>
     </g>
     <g id="text_9">
      <!-- 0 -->
      <g transform="translate(40.6375 183.034354)scale(0.1 -0.1)">
       <use xlink:href="#DejaVuSans-30"/>
      </g>
     </g>
    </g>
    <g id="ytick_4">
     <g id="line2d_10">
      <g>
       <use xlink:href="#m69027e1d92" x="54" y="150.952468" style="stroke: #000000; stroke-width: 0.8"/>
      </g>
     </g>
     <g id="text_10">
      <!-- 2500 -->
      <g transform="translate(21.55 154.751687)scale(0.1 -0.1)">
       <use xlink:href="#DejaVuSans-32"/>
       <use xlink:href="#DejaVuSans-35" x="63.623047"/>
       <use xlink:href="#DejaVuSans-30" x="127.246094"/>
       <use xlink:href="#DejaVuSans-30" x="190.869141"/>
      </g>
     </g>
    </g>
    <g id="ytick_5">
     <g id="line2d_11">
      <g>
       <use xlink:href="#m69027e1d92" x="54" y="122.669802" style="stroke: #000000; stroke-width: 0.8"/>
      </g>
     </g>
     <g id="text_11">
      <!-- 5000 -->
      <g transform="translate(21.55 126.46902)scale(0.1 -0.1)">
       <use xlink:href="#DejaVuSans-35"/>
       <use xlink:href="#DejaVuSans-30" x="63.623047"/>
       <use xlink:href="#DejaVuSans-30" x="127.246094"/>
       <use xlink:href="#DejaVuSans-30" x="190.869141"/>
      </g>
     </g>
    </g>
    <g id="ytick_6">
     <g id="line2d_12">
      <g>
       <use xlink:href="#m69027e1d92" x="54" y="94.387135" style="stroke: #000000; stroke-width: 0.8"/>
      </g>
     </g>
     <g id="text_12">
      <!-- 7500 -->
      <g transform="translate(21.55 98.186354)scale(0.1 -0.1)">
       <defs>
        <path id="DejaVuSans-37" d="M 525 4666 
L 3525 4666 
L 3525 4397 
L 1831 0 
L 1172 0 
L 2766 4134 
L 525 4134 
L 525 4666 
z
" transform="scale(0.015625)"/>
       </defs>
       <use xlink:href="#DejaVuSans-37"/>
       <use xlink:href="#DejaVuSans-35" x="63.623047"/>
       <use xlink:href="#DejaVuSans-30" x="127.246094"/>
       <use xlink:href="#DejaVuSans-30" x="190.869141"/>
      </g>
     </g>
    </g>
    <g id="ytick_7">
     <g id="line2d_13">
      <g>
       <use xlink:href="#m69027e1d92" x="54" y="66.104468" style="stroke: #000000; stroke-width: 0.8"/>
      </g>
     </g>
     <g id="text_13">
      <!-- 10000 -->
      <g transform="translate(15.1875 69.903687)scale(0.1 -0.1)">
       <use xlink:href="#DejaVuSans-31"/>
       <use xlink:href="#DejaVuSans-30" x="63.623047"/>
       <use xlink:href="#DejaVuSans-30" x="127.246094"/>
       <use xlink:href="#DejaVuSans-30" x="190.869141"/>
       <use xlink:href="#DejaVuSans-30" x="254.492188"/>
      </g>
     </g>
    </g>
    <g id="ytick_8">
     <g id="line2d_14">
      <g>
       <use xlink:href="#m69027e1d92" x="54" y="37.821802" style="stroke: #000000; stroke-width: 0.8"/>
      </g>
     </g>
     <g id="text_14">
      <!-- 12500 -->
      <g transform="translate(15.1875 41.621021)scale(0.1 -0.1)">
       <use xlink:href="#DejaVuSans-31"/>
       <use xlink:href="#DejaVuSans-32" x="63.623047"/>
       <use xlink:href="#DejaVuSans-35" x="127.246094"/>
       <use xlink:href="#DejaVuSans-30" x="190.869141"/>
       <use xlink:href="#DejaVuSans-30" x="254.492188"/>
      </g>
     </g>
    </g>
   </g>
   <g id="LineCollection_1">
    <path d="M 69.218182 179.235135 
L 69.218182 179.223822 
" clip-path="url(#p905f0867ab)" style="fill: none; stroke: #1f77b4; stroke-width: 1.5"/>
    <path d="M 72.292562 179.235135 
L 72.292562 179.2233 
" clip-path="url(#p905f0867ab)" style="fill: none; stroke: #1f77b4; stroke-width: 1.5"/>
    <path d="M 75.366942 179.235135 
L 75.366942 179.22406 
" clip-path="url(#p905f0867ab)" style="fill: none; stroke: #1f77b4; stroke-width: 1.5"/>
    <path d="M 78.441322 179.235135 
L 78.441322 179.226284 
" clip-path="url(#p905f0867ab)" style="fill: none; stroke: #1f77b4; stroke-width: 1.5"/>
    <path d="M 81.515702 179.235135 
L 81.515702 179.230016 
" clip-path="url(#p905f0867ab)" style="fill: none; stroke: #1f77b4; stroke-width: 1.5"/>
    <path d="M 84.590083 179.235135 
L 84.590083 179.235135 
" clip-path="url(#p905f0867ab)" style="fill: none; stroke: #1f77b4; stroke-width: 1.5"/>
    <path d="M 87.664463 179.235135 
L 87.664463 179.241328 
" clip-path="url(#p905f0867ab)" style="fill: none; stroke: #1f77b4; stroke-width: 1.5"/>
    <path d="M 90.738843 179.235135 
L 90.738843 179.248093 
" clip-path="url(#p905f0867ab)" style="fill: none; stroke: #1f77b4; stroke-width: 1.5"/>
    <path d="M 93.813223 179.235135 
L 93.813223 179.254754 
" clip-path="url(#p905f0867ab)" style="fill: none; stroke: #1f77b4; stroke-width: 1.5"/>
    <path d="M 96.887603 179.235135 
L 96.887603 179.260505 
" clip-path="url(#p905f0867ab)" style="fill: none; stroke: #1f77b4; stroke-width: 1.5"/>
    <path d="M 99.961983 179.235135 
L 99.961983 179.264478 
" clip-path="url(#p905f0867ab)" style="fill: none; stroke: #1f77b4; stroke-width: 1.5"/>
    <path d="M 103.036364 179.235135 
L 103.036364 179.265833 
" clip-path="url(#p905f0867ab)" style="fill: none; stroke: #1f77b4; stroke-width: 1.5"/>
    <path d="M 106.110744 179.235135 
L 106.110744 179.263859 
" clip-path="url(#p905f0867ab)" style="fill: none; stroke: #1f77b4; stroke-width: 1.5"/>
    <path d="M 109.185124 179.235135 
L 109.185124 179.258091 
" clip-path="url(#p905f0867ab)" style="fill: none; stroke: #1f77b4; stroke-width: 1.5"/>
    <path d="M 112.259504 179.235135 
L 112.259504 179.248411 
" clip-path="url(#p905f0867ab)" style="fill: none; stroke: #1f77b4; stroke-width: 1.5"/>
    <path d="M 115.333884 179.235135 
L 115.333884 179.235135 
" clip-path="url(#p905f0867ab)" style="fill: none; stroke: #1f77b4; stroke-width: 1.5"/>
    <path d="M 118.408264 179.235135 
L 118.408264 179.219071 
" clip-path="url(#p905f0867ab)" style="fill: none; stroke: #1f77b4; stroke-width: 1.5"/>
    <path d="M 121.482645 179.235135 
L 121.482645 179.201524 
" clip-path="url(#p905f0867ab)" style="fill: none; stroke: #1f77b4; stroke-width: 1.5"/>
    <path d="M 124.557025 179.235135 
L 124.557025 179.184248 
" clip-path="url(#p905f0867ab)" style="fill: none; stroke: #1f77b4; stroke-width: 1.5"/>
    <path d="M 127.631405 179.235135 
L 127.631405 179.169332 
" clip-path="url(#p905f0867ab)" style="fill: none; stroke: #1f77b4; stroke-width: 1.5"/>
    <path d="M 130.705785 179.235135 
L 130.705785 179.159026 
" clip-path="url(#p905f0867ab)" style="fill: none; stroke: #1f77b4; stroke-width: 1.5"/>
    <path d="M 133.780165 179.235135 
L 133.780165 179.155513 
" clip-path="url(#p905f0867ab)" style="fill: none; stroke: #1f77b4; stroke-width: 1.5"/>
    <path d="M 136.854545 179.235135 
L 136.854545 179.160631 
" clip-path="url(#p905f0867ab)" style="fill: none; stroke: #1f77b4; stroke-width: 1.5"/>
    <path d="M 139.928926 179.235135 
L 139.928926 179.175592 
" clip-path="url(#p905f0867ab)" style="fill: none; stroke: #1f77b4; stroke-width: 1.5"/>
    <path d="M 143.003306 179.235135 
L 143.003306 179.200701 
" clip-path="url(#p905f0867ab)" style="fill: none; stroke: #1f77b4; stroke-width: 1.5"/>
    <path d="M 146.077686 179.235135 
L 146.077686 179.235135 
" clip-path="url(#p905f0867ab)" style="fill: none; stroke: #1f77b4; stroke-width: 1.5"/>
    <path d="M 149.152066 179.235135 
L 149.152066 179.2768 
" clip-path="url(#p905f0867ab)" style="fill: none; stroke: #1f77b4; stroke-width: 1.5"/>
    <path d="M 152.226446 179.235135 
L 152.226446 179.322312 
" clip-path="url(#p905f0867ab)" style="fill: none; stroke: #1f77b4; stroke-width: 1.5"/>
    <path d="M 155.300826 179.235135 
L 155.300826 179.367122 
" clip-path="url(#p905f0867ab)" style="fill: none; stroke: #1f77b4; stroke-width: 1.5"/>
    <path d="M 158.375207 179.235135 
L 158.375207 179.405812 
" clip-path="url(#p905f0867ab)" style="fill: none; stroke: #1f77b4; stroke-width: 1.5"/>
    <path d="M 161.449587 179.235135 
L 161.449587 179.432541 
" clip-path="url(#p905f0867ab)" style="fill: none; stroke: #1f77b4; stroke-width: 1.5"/>
    <path d="M 164.523967 179.235135 
L 164.523967 179.441654 
" clip-path="url(#p905f0867ab)" style="fill: none; stroke: #1f77b4; stroke-width: 1.5"/>
    <path d="M 167.598347 179.235135 
L 167.598347 179.428378 
" clip-path="url(#p905f0867ab)" style="fill: none; stroke: #1f77b4; stroke-width: 1.5"/>
    <path d="M 170.672727 179.235135 
L 170.672727 179.389574 
" clip-path="url(#p905f0867ab)" style="fill: none; stroke: #1f77b4; stroke-width: 1.5"/>
    <path d="M 173.747107 179.235135 
L 173.747107 179.324448 
" clip-path="url(#p905f0867ab)" style="fill: none; stroke: #1f77b4; stroke-width: 1.5"/>
    <path d="M 176.821488 179.235135 
L 176.821488 179.235135 
" clip-path="url(#p905f0867ab)" style="fill: none; stroke: #1f77b4; stroke-width: 1.5"/>
    <path d="M 179.895868 179.235135 
L 179.895868 179.127066 
" clip-path="url(#p905f0867ab)" style="fill: none; stroke: #1f77b4; stroke-width: 1.5"/>
    <path d="M 182.970248 179.235135 
L 182.970248 179.00902 
" clip-path="url(#p905f0867ab)" style="fill: none; stroke: #1f77b4; stroke-width: 1.5"/>
    <path d="M 186.044628 179.235135 
L 186.044628 178.892793 
" clip-path="url(#p905f0867ab)" style="fill: none; stroke: #1f77b4; stroke-width: 1.5"/>
    <path d="M 189.119008 179.235135 
L 189.119008 178.792443 
" clip-path="url(#p905f0867ab)" style="fill: none; stroke: #1f77b4; stroke-width: 1.5"/>
    <path d="M 192.193388 179.235135 
L 192.193388 178.723114 
" clip-path="url(#p905f0867ab)" style="fill: none; stroke: #1f77b4; stroke-width: 1.5"/>
    <path d="M 195.267769 179.235135 
L 195.267769 178.699478 
" clip-path="url(#p905f0867ab)" style="fill: none; stroke: #1f77b4; stroke-width: 1.5"/>
    <path d="M 198.342149 179.235135 
L 198.342149 178.733912 
" clip-path="url(#p905f0867ab)" style="fill: none; stroke: #1f77b4; stroke-width: 1.5"/>
    <path d="M 201.416529 179.235135 
L 201.416529 178.834559 
" clip-path="url(#p905f0867ab)" style="fill: none; stroke: #1f77b4; stroke-width: 1.5"/>
    <path d="M 204.490909 179.235135 
L 204.490909 179.00348 
" clip-path="url(#p905f0867ab)" style="fill: none; stroke: #1f77b4; stroke-width: 1.5"/>
    <path d="M 207.565289 179.235135 
L 207.565289 179.235135 
" clip-path="url(#p905f0867ab)" style="fill: none; stroke: #1f77b4; stroke-width: 1.5"/>
    <path d="M 210.639669 179.235135 
L 210.639669 179.515437 
" clip-path="url(#p905f0867ab)" style="fill: none; stroke: #1f77b4; stroke-width: 1.5"/>
    <path d="M 213.71405 179.235135 
L 213.71405 179.821618 
" clip-path="url(#p905f0867ab)" style="fill: none; stroke: #1f77b4; stroke-width: 1.5"/>
    <path d="M 216.78843 179.235135 
L 216.78843 180.123081 
" clip-path="url(#p905f0867ab)" style="fill: none; stroke: #1f77b4; stroke-width: 1.5"/>
    <path d="M 219.86281 179.235135 
L 219.86281 180.383363 
" clip-path="url(#p905f0867ab)" style="fill: none; stroke: #1f77b4; stroke-width: 1.5"/>
    <path d="M 222.93719 179.235135 
L 222.93719 180.563185 
" clip-path="url(#p905f0867ab)" style="fill: none; stroke: #1f77b4; stroke-width: 1.5"/>
    <path d="M 226.01157 179.235135 
L 226.01157 180.624491 
" clip-path="url(#p905f0867ab)" style="fill: none; stroke: #1f77b4; stroke-width: 1.5"/>
    <path d="M 229.08595 179.235135 
L 229.08595 180.535178 
" clip-path="url(#p905f0867ab)" style="fill: none; stroke: #1f77b4; stroke-width: 1.5"/>
    <path d="M 232.160331 179.235135 
L 232.160331 180.274125 
" clip-path="url(#p905f0867ab)" style="fill: none; stroke: #1f77b4; stroke-width: 1.5"/>
    <path d="M 235.234711 179.235135 
L 235.234711 179.835987 
" clip-path="url(#p905f0867ab)" style="fill: none; stroke: #1f77b4; stroke-width: 1.5"/>
    <path d="M 238.309091 179.235135 
L 238.309091 179.235135 
" clip-path="url(#p905f0867ab)" style="fill: none; stroke: #1f77b4; stroke-width: 1.5"/>
    <path d="M 241.383471 179.235135 
L 241.383471 178.508104 
" clip-path="url(#p905f0867ab)" style="fill: none; stroke: #1f77b4; stroke-width: 1.5"/>
    <path d="M 244.457851 179.235135 
L 244.457851 177.71395 
" clip-path="url(#p905f0867ab)" style="fill: none; stroke: #1f77b4; stroke-width: 1.5"/>
    <path d="M 247.532231 179.235135 
L 247.532231 176.93203 
" clip-path="url(#p905f0867ab)" style="fill: none; stroke: #1f77b4; stroke-width: 1.5"/>
    <path d="M 250.606612 179.235135 
L 250.606612 176.256926 
" clip-path="url(#p905f0867ab)" style="fill: none; stroke: #1f77b4; stroke-width: 1.5"/>
    <path d="M 253.680992 179.235135 
L 253.680992 175.790514 
" clip-path="url(#p905f0867ab)" style="fill: none; stroke: #1f77b4; stroke-width: 1.5"/>
    <path d="M 256.755372 179.235135 
L 256.755372 175.631503 
" clip-path="url(#p905f0867ab)" style="fill: none; stroke: #1f77b4; stroke-width: 1.5"/>
    <path d="M 259.829752 179.235135 
L 259.829752 175.863159 
" clip-path="url(#p905f0867ab)" style="fill: none; stroke: #1f77b4; stroke-width: 1.5"/>
    <path d="M 262.904132 179.235135 
L 262.904132 176.540262 
" clip-path="url(#p905f0867ab)" style="fill: none; stroke: #1f77b4; stroke-width: 1.5"/>
    <path d="M 265.978512 179.235135 
L 265.978512 177.676679 
" clip-path="url(#p905f0867ab)" style="fill: none; stroke: #1f77b4; stroke-width: 1.5"/>
    <path d="M 269.052893 179.235135 
L 269.052893 179.235135 
" clip-path="url(#p905f0867ab)" style="fill: none; stroke: #1f77b4; stroke-width: 1.5"/>
    <path d="M 272.127273 179.235135 
L 272.127273 181.120867 
" clip-path="url(#p905f0867ab)" style="fill: none; stroke: #1f77b4; stroke-width: 1.5"/>
    <path d="M 275.201653 179.235135 
L 275.201653 183.180697 
" clip-path="url(#p905f0867ab)" style="fill: none; stroke: #1f77b4; stroke-width: 1.5"/>
    <path d="M 278.276033 179.235135 
L 278.276033 185.208796 
" clip-path="url(#p905f0867ab)" style="fill: none; stroke: #1f77b4; stroke-width: 1.5"/>
    <path d="M 281.350413 179.235135 
L 281.350413 186.959841 
" clip-path="url(#p905f0867ab)" style="fill: none; stroke: #1f77b4; stroke-width: 1.5"/>
    <path d="M 284.424793 179.235135 
L 284.424793 188.169595 
" clip-path="url(#p905f0867ab)" style="fill: none; stroke: #1f77b4; stroke-width: 1.5"/>
    <path d="M 287.499174 179.235135 
L 287.499174 188.582029 
" clip-path="url(#p905f0867ab)" style="fill: none; stroke: #1f77b4; stroke-width: 1.5"/>
    <path d="M 290.573554 179.235135 
L 290.573554 187.981172 
" clip-path="url(#p905f0867ab)" style="fill: none; stroke: #1f77b4; stroke-width: 1.5"/>
    <path d="M 293.647934 179.235135 
L 293.647934 186.22494 
" clip-path="url(#p905f0867ab)" style="fill: none; stroke: #1f77b4; stroke-width: 1.5"/>
    <path d="M 296.722314 179.235135 
L 296.722314 183.277368 
" clip-path="url(#p905f0867ab)" style="fill: none; stroke: #1f77b4; stroke-width: 1.5"/>
    <path d="M 299.796694 179.235135 
L 299.796694 179.235135 
" clip-path="url(#p905f0867ab)" style="fill: none; stroke: #1f77b4; stroke-width: 1.5"/>
    <path d="M 302.871074 179.235135 
L 302.871074 174.344032 
" clip-path="url(#p905f0867ab)" style="fill: none; stroke: #1f77b4; stroke-width: 1.5"/>
    <path d="M 305.945455 179.235135 
L 305.945455 169.001362 
" clip-path="url(#p905f0867ab)" style="fill: none; stroke: #1f77b4; stroke-width: 1.5"/>
    <path d="M 309.019835 179.235135 
L 309.019835 163.740996 
" clip-path="url(#p905f0867ab)" style="fill: none; stroke: #1f77b4; stroke-width: 1.5"/>
    <path d="M 312.094215 179.235135 
L 312.094215 159.199237 
" clip-path="url(#p905f0867ab)" style="fill: none; stroke: #1f77b4; stroke-width: 1.5"/>
    <path d="M 315.168595 179.235135 
L 315.168595 156.061447 
" clip-path="url(#p905f0867ab)" style="fill: none; stroke: #1f77b4; stroke-width: 1.5"/>
    <path d="M 318.242975 179.235135 
L 318.242975 154.991699 
" clip-path="url(#p905f0867ab)" style="fill: none; stroke: #1f77b4; stroke-width: 1.5"/>
    <path d="M 321.317355 179.235135 
L 321.317355 156.550167 
" clip-path="url(#p905f0867ab)" style="fill: none; stroke: #1f77b4; stroke-width: 1.5"/>
    <path d="M 324.391736 179.235135 
L 324.391736 161.105381 
" clip-path="url(#p905f0867ab)" style="fill: none; stroke: #1f77b4; stroke-width: 1.5"/>
    <path d="M 327.466116 179.235135 
L 327.466116 168.750622 
" clip-path="url(#p905f0867ab)" style="fill: none; stroke: #1f77b4; stroke-width: 1.5"/>
    <path d="M 330.540496 179.235135 
L 330.540496 179.235135 
" clip-path="url(#p905f0867ab)" style="fill: none; stroke: #1f77b4; stroke-width: 1.5"/>
    <path d="M 333.614876 179.235135 
L 333.614876 191.921396 
" clip-path="url(#p905f0867ab)" style="fill: none; stroke: #1f77b4; stroke-width: 1.5"/>
    <path d="M 336.689256 179.235135 
L 336.689256 205.778907 
" clip-path="url(#p905f0867ab)" style="fill: none; stroke: #1f77b4; stroke-width: 1.5"/>
    <path d="M 339.763636 179.235135 
L 339.763636 219.42294 
" clip-path="url(#p905f0867ab)" style="fill: none; stroke: #1f77b4; stroke-width: 1.5"/>
    <path d="M 342.838017 179.235135 
L 342.838017 231.203093 
" clip-path="url(#p905f0867ab)" style="fill: none; stroke: #1f77b4; stroke-width: 1.5"/>
    <path d="M 345.912397 179.235135 
L 345.912397 239.341714 
" clip-path="url(#p905f0867ab)" style="fill: none; stroke: #1f77b4; stroke-width: 1.5"/>
    <path d="M 348.986777 179.235135 
L 348.986777 242.116364 
" clip-path="url(#p905f0867ab)" style="fill: none; stroke: #1f77b4; stroke-width: 1.5"/>
    <path d="M 352.061157 179.235135 
L 352.061157 238.0741 
" clip-path="url(#p905f0867ab)" style="fill: none; stroke: #1f77b4; stroke-width: 1.5"/>
    <path d="M 355.135537 179.235135 
L 355.135537 226.259046 
" clip-path="url(#p905f0867ab)" style="fill: none; stroke: #1f77b4; stroke-width: 1.5"/>
    <path d="M 358.209917 179.235135 
L 358.209917 206.429261 
" clip-path="url(#p905f0867ab)" style="fill: none; stroke: #1f77b4; stroke-width: 1.5"/>
    <path d="M 361.284298 179.235135 
L 361.284298 179.235135 
" clip-path="url(#p905f0867ab)" style="fill: none; stroke: #1f77b4; stroke-width: 1.5"/>
    <path d="M 364.358678 179.235135 
L 364.358678 146.330242 
" clip-path="url(#p905f0867ab)" style="fill: none; stroke: #1f77b4; stroke-width: 1.5"/>
    <path d="M 367.433058 179.235135 
L 367.433058 110.387426 
" clip-path="url(#p905f0867ab)" style="fill: none; stroke: #1f77b4; stroke-width: 1.5"/>
    <path d="M 370.507438 179.235135 
L 370.507438 74.998319 
" clip-path="url(#p905f0867ab)" style="fill: none; stroke: #1f77b4; stroke-width: 1.5"/>
    <path d="M 373.581818 179.235135 
L 373.581818 44.443636 
" clip-path="url(#p905f0867ab)" style="fill: none; stroke: #1f77b4; stroke-width: 1.5"/>
   </g>
   <g id="line2d_15">
    <defs>
     <path id="m12b632d8fe" d="M 0 3 
C 0.795609 3 1.55874 2.683901 2.12132 2.12132 
C 2.683901 1.55874 3 0.795609 3 0 
C 3 -0.795609 2.683901 -1.55874 2.12132 -2.12132 
C 1.55874 -2.683901 0.795609 -3 0 -3 
C -0.795609 -3 -1.55874 -2.683901 -2.12132 -2.12132 
C -2.683901 -1.55874 -3 -0.795609 -3 0 
C -3 0.795609 -2.683901 1.55874 -2.12132 2.12132 
C -1.55874 2.683901 -0.795609 3 0 3 
z
" style="stroke: #1f77b4"/>
    </defs>
    <g clip-path="url(#p905f0867ab)">
     <use xlink:href="#m12b632d8fe" x="69.218182" y="179.223822" style="fill: #1f77b4; stroke: #1f77b4"/>
     <use xlink:href="#m12b632d8fe" x="72.292562" y="179.2233" style="fill: #1f77b4; stroke: #1f77b4"/>
     <use xlink:href="#m12b632d8fe" x="75.366942" y="179.22406" style="fill: #1f77b4; stroke: #1f77b4"/>
     <use xlink:href="#m12b632d8fe" x="78.441322" y="179.226284" style="fill: #1f77b4; stroke: #1f77b4"/>
     <use xlink:href="#m12b632d8fe" x="81.515702" y="179.230016" style="fill: #1f77b4; stroke: #1f77b4"/>
     <use xlink:href="#m12b632d8fe" x="84.590083" y="179.235135" style="fill: #1f77b4; stroke: #1f77b4"/>
     <use xlink:href="#m12b632d8fe" x="87.664463" y="179.241328" style="fill: #1f77b4; stroke: #1f77b4"/>
     <use xlink:href="#m12b632d8fe" x="90.738843" y="179.248093" style="fill: #1f77b4; stroke: #1f77b4"/>
     <use xlink:href="#m12b632d8fe" x="93.813223" y="179.254754" style="fill: #1f77b4; stroke: #1f77b4"/>
     <use xlink:href="#m12b632d8fe" x="96.887603" y="179.260505" style="fill: #1f77b4; stroke: #1f77b4"/>
     <use xlink:href="#m12b632d8fe" x="99.961983" y="179.264478" style="fill: #1f77b4; stroke: #1f77b4"/>
     <use xlink:href="#m12b632d8fe" x="103.036364" y="179.265833" style="fill: #1f77b4; stroke: #1f77b4"/>
     <use xlink:href="#m12b632d8fe" x="106.110744" y="179.263859" style="fill: #1f77b4; stroke: #1f77b4"/>
     <use xlink:href="#m12b632d8fe" x="109.185124" y="179.258091" style="fill: #1f77b4; stroke: #1f77b4"/>
     <use xlink:href="#m12b632d8fe" x="112.259504" y="179.248411" style="fill: #1f77b4; stroke: #1f77b4"/>
     <use xlink:href="#m12b632d8fe" x="115.333884" y="179.235135" style="fill: #1f77b4; stroke: #1f77b4"/>
     <use xlink:href="#m12b632d8fe" x="118.408264" y="179.219071" style="fill: #1f77b4; stroke: #1f77b4"/>
     <use xlink:href="#m12b632d8fe" x="121.482645" y="179.201524" style="fill: #1f77b4; stroke: #1f77b4"/>
     <use xlink:href="#m12b632d8fe" x="124.557025" y="179.184248" style="fill: #1f77b4; stroke: #1f77b4"/>
     <use xlink:href="#m12b632d8fe" x="127.631405" y="179.169332" style="fill: #1f77b4; stroke: #1f77b4"/>
     <use xlink:href="#m12b632d8fe" x="130.705785" y="179.159026" style="fill: #1f77b4; stroke: #1f77b4"/>
     <use xlink:href="#m12b632d8fe" x="133.780165" y="179.155513" style="fill: #1f77b4; stroke: #1f77b4"/>
     <use xlink:href="#m12b632d8fe" x="136.854545" y="179.160631" style="fill: #1f77b4; stroke: #1f77b4"/>
     <use xlink:href="#m12b632d8fe" x="139.928926" y="179.175592" style="fill: #1f77b4; stroke: #1f77b4"/>
     <use xlink:href="#m12b632d8fe" x="143.003306" y="179.200701" style="fill: #1f77b4; stroke: #1f77b4"/>
     <use xlink:href="#m12b632d8fe" x="146.077686" y="179.235135" style="fill: #1f77b4; stroke: #1f77b4"/>
     <use xlink:href="#m12b632d8fe" x="149.152066" y="179.2768" style="fill: #1f77b4; stroke: #1f77b4"/>
     <use xlink:href="#m12b632d8fe" x="152.226446" y="179.322312" style="fill: #1f77b4; stroke: #1f77b4"/>
     <use xlink:href="#m12b632d8fe" x="155.300826" y="179.367122" style="fill: #1f77b4; stroke: #1f77b4"/>
     <use xlink:href="#m12b632d8fe" x="158.375207" y="179.405812" style="fill: #1f77b4; stroke: #1f77b4"/>
     <use xlink:href="#m12b632d8fe" x="161.449587" y="179.432541" style="fill: #1f77b4; stroke: #1f77b4"/>
     <use xlink:href="#m12b632d8fe" x="164.523967" y="179.441654" style="fill: #1f77b4; stroke: #1f77b4"/>
     <use xlink:href="#m12b632d8fe" x="167.598347" y="179.428378" style="fill: #1f77b4; stroke: #1f77b4"/>
     <use xlink:href="#m12b632d8fe" x="170.672727" y="179.389574" style="fill: #1f77b4; stroke: #1f77b4"/>
     <use xlink:href="#m12b632d8fe" x="173.747107" y="179.324448" style="fill: #1f77b4; stroke: #1f77b4"/>
     <use xlink:href="#m12b632d8fe" x="176.821488" y="179.235135" style="fill: #1f77b4; stroke: #1f77b4"/>
     <use xlink:href="#m12b632d8fe" x="179.895868" y="179.127066" style="fill: #1f77b4; stroke: #1f77b4"/>
     <use xlink:href="#m12b632d8fe" x="182.970248" y="179.00902" style="fill: #1f77b4; stroke: #1f77b4"/>
     <use xlink:href="#m12b632d8fe" x="186.044628" y="178.892793" style="fill: #1f77b4; stroke: #1f77b4"/>
     <use xlink:href="#m12b632d8fe" x="189.119008" y="178.792443" style="fill: #1f77b4; stroke: #1f77b4"/>
     <use xlink:href="#m12b632d8fe" x="192.193388" y="178.723114" style="fill: #1f77b4; stroke: #1f77b4"/>
     <use xlink:href="#m12b632d8fe" x="195.267769" y="178.699478" style="fill: #1f77b4; stroke: #1f77b4"/>
     <use xlink:href="#m12b632d8fe" x="198.342149" y="178.733912" style="fill: #1f77b4; stroke: #1f77b4"/>
     <use xlink:href="#m12b632d8fe" x="201.416529" y="178.834559" style="fill: #1f77b4; stroke: #1f77b4"/>
     <use xlink:href="#m12b632d8fe" x="204.490909" y="179.00348" style="fill: #1f77b4; stroke: #1f77b4"/>
     <use xlink:href="#m12b632d8fe" x="207.565289" y="179.235135" style="fill: #1f77b4; stroke: #1f77b4"/>
     <use xlink:href="#m12b632d8fe" x="210.639669" y="179.515437" style="fill: #1f77b4; stroke: #1f77b4"/>
     <use xlink:href="#m12b632d8fe" x="213.71405" y="179.821618" style="fill: #1f77b4; stroke: #1f77b4"/>
     <use xlink:href="#m12b632d8fe" x="216.78843" y="180.123081" style="fill: #1f77b4; stroke: #1f77b4"/>
     <use xlink:href="#m12b632d8fe" x="219.86281" y="180.383363" style="fill: #1f77b4; stroke: #1f77b4"/>
     <use xlink:href="#m12b632d8fe" x="222.93719" y="180.563185" style="fill: #1f77b4; stroke: #1f77b4"/>
     <use xlink:href="#m12b632d8fe" x="226.01157" y="180.624491" style="fill: #1f77b4; stroke: #1f77b4"/>
     <use xlink:href="#m12b632d8fe" x="229.08595" y="180.535178" style="fill: #1f77b4; stroke: #1f77b4"/>
     <use xlink:href="#m12b632d8fe" x="232.160331" y="180.274125" style="fill: #1f77b4; stroke: #1f77b4"/>
     <use xlink:href="#m12b632d8fe" x="235.234711" y="179.835987" style="fill: #1f77b4; stroke: #1f77b4"/>
     <use xlink:href="#m12b632d8fe" x="238.309091" y="179.235135" style="fill: #1f77b4; stroke: #1f77b4"/>
     <use xlink:href="#m12b632d8fe" x="241.383471" y="178.508104" style="fill: #1f77b4; stroke: #1f77b4"/>
     <use xlink:href="#m12b632d8fe" x="244.457851" y="177.71395" style="fill: #1f77b4; stroke: #1f77b4"/>
     <use xlink:href="#m12b632d8fe" x="247.532231" y="176.93203" style="fill: #1f77b4; stroke: #1f77b4"/>
     <use xlink:href="#m12b632d8fe" x="250.606612" y="176.256926" style="fill: #1f77b4; stroke: #1f77b4"/>
     <use xlink:href="#m12b632d8fe" x="253.680992" y="175.790514" style="fill: #1f77b4; stroke: #1f77b4"/>
     <use xlink:href="#m12b632d8fe" x="256.755372" y="175.631503" style="fill: #1f77b4; stroke: #1f77b4"/>
     <use xlink:href="#m12b632d8fe" x="259.829752" y="175.863159" style="fill: #1f77b4; stroke: #1f77b4"/>
     <use xlink:href="#m12b632d8fe" x="262.904132" y="176.540262" style="fill: #1f77b4; stroke: #1f77b4"/>
     <use xlink:href="#m12b632d8fe" x="265.978512" y="177.676679" style="fill: #1f77b4; stroke: #1f77b4"/>
     <use xlink:href="#m12b632d8fe" x="269.052893" y="179.235135" style="fill: #1f77b4; stroke: #1f77b4"/>
     <use xlink:href="#m12b632d8fe" x="272.127273" y="181.120867" style="fill: #1f77b4; stroke: #1f77b4"/>
     <use xlink:href="#m12b632d8fe" x="275.201653" y="183.180697" style="fill: #1f77b4; stroke: #1f77b4"/>
     <use xlink:href="#m12b632d8fe" x="278.276033" y="185.208796" style="fill: #1f77b4; stroke: #1f77b4"/>
     <use xlink:href="#m12b632d8fe" x="281.350413" y="186.959841" style="fill: #1f77b4; stroke: #1f77b4"/>
     <use xlink:href="#m12b632d8fe" x="284.424793" y="188.169595" style="fill: #1f77b4; stroke: #1f77b4"/>
     <use xlink:href="#m12b632d8fe" x="287.499174" y="188.582029" style="fill: #1f77b4; stroke: #1f77b4"/>
     <use xlink:href="#m12b632d8fe" x="290.573554" y="187.981172" style="fill: #1f77b4; stroke: #1f77b4"/>
     <use xlink:href="#m12b632d8fe" x="293.647934" y="186.22494" style="fill: #1f77b4; stroke: #1f77b4"/>
     <use xlink:href="#m12b632d8fe" x="296.722314" y="183.277368" style="fill: #1f77b4; stroke: #1f77b4"/>
     <use xlink:href="#m12b632d8fe" x="299.796694" y="179.235135" style="fill: #1f77b4; stroke: #1f77b4"/>
     <use xlink:href="#m12b632d8fe" x="302.871074" y="174.344032" style="fill: #1f77b4; stroke: #1f77b4"/>
     <use xlink:href="#m12b632d8fe" x="305.945455" y="169.001362" style="fill: #1f77b4; stroke: #1f77b4"/>
     <use xlink:href="#m12b632d8fe" x="309.019835" y="163.740996" style="fill: #1f77b4; stroke: #1f77b4"/>
     <use xlink:href="#m12b632d8fe" x="312.094215" y="159.199237" style="fill: #1f77b4; stroke: #1f77b4"/>
     <use xlink:href="#m12b632d8fe" x="315.168595" y="156.061447" style="fill: #1f77b4; stroke: #1f77b4"/>
     <use xlink:href="#m12b632d8fe" x="318.242975" y="154.991699" style="fill: #1f77b4; stroke: #1f77b4"/>
     <use xlink:href="#m12b632d8fe" x="321.317355" y="156.550167" style="fill: #1f77b4; stroke: #1f77b4"/>
     <use xlink:href="#m12b632d8fe" x="324.391736" y="161.105381" style="fill: #1f77b4; stroke: #1f77b4"/>
     <use xlink:href="#m12b632d8fe" x="327.466116" y="168.750622" style="fill: #1f77b4; stroke: #1f77b4"/>
     <use xlink:href="#m12b632d8fe" x="330.540496" y="179.235135" style="fill: #1f77b4; stroke: #1f77b4"/>
     <use xlink:href="#m12b632d8fe" x="333.614876" y="191.921396" style="fill: #1f77b4; stroke: #1f77b4"/>
     <use xlink:href="#m12b632d8fe" x="336.689256" y="205.778907" style="fill: #1f77b4; stroke: #1f77b4"/>
     <use xlink:href="#m12b632d8fe" x="339.763636" y="219.42294" style="fill: #1f77b4; stroke: #1f77b4"/>
     <use xlink:href="#m12b632d8fe" x="342.838017" y="231.203093" style="fill: #1f77b4; stroke: #1f77b4"/>
     <use xlink:href="#m12b632d8fe" x="345.912397" y="239.341714" style="fill: #1f77b4; stroke: #1f77b4"/>
     <use xlink:href="#m12b632d8fe" x="348.986777" y="242.116364" style="fill: #1f77b4; stroke: #1f77b4"/>
     <use xlink:href="#m12b632d8fe" x="352.061157" y="238.0741" style="fill: #1f77b4; stroke: #1f77b4"/>
     <use xlink:href="#m12b632d8fe" x="355.135537" y="226.259046" style="fill: #1f77b4; stroke: #1f77b4"/>
     <use xlink:href="#m12b632d8fe" x="358.209917" y="206.429261" style="fill: #1f77b4; stroke: #1f77b4"/>
     <use xlink:href="#m12b632d8fe" x="361.284298" y="179.235135" style="fill: #1f77b4; stroke: #1f77b4"/>
     <use xlink:href="#m12b632d8fe" x="364.358678" y="146.330242" style="fill: #1f77b4; stroke: #1f77b4"/>
     <use xlink:href="#m12b632d8fe" x="367.433058" y="110.387426" style="fill: #1f77b4; stroke: #1f77b4"/>
     <use xlink:href="#m12b632d8fe" x="370.507438" y="74.998319" style="fill: #1f77b4; stroke: #1f77b4"/>
     <use xlink:href="#m12b632d8fe" x="373.581818" y="44.443636" style="fill: #1f77b4; stroke: #1f77b4"/>
    </g>
   </g>
   <g id="line2d_16">
    <path d="M 69.218182 179.235135 
L 373.581818 179.235135 
" clip-path="url(#p905f0867ab)" style="fill: none; stroke: #d62728; stroke-width: 1.5; stroke-linecap: square"/>
   </g>
   <g id="patch_3">
    <path d="M 54 252 
L 54 34.56 
" style="fill: none; stroke: #000000; stroke-width: 0.8; stroke-linejoin: miter; stroke-linecap: square"/>
   </g>
   <g id="patch_4">
    <path d="M 388.8 252 
L 388.8 34.56 
" style="fill: none; stroke: #000000; stroke-width: 0.8; stroke-linejoin: miter; stroke-linecap: square"/>
   </g>
   <g id="patch_5">
    <path d="M 54 252 
L 388.8 252 
" style="fill: none; stroke: #000000; stroke-width: 0.8; stroke-linejoin: miter; stroke-linecap: square"/>
   </g>
   <g id="patch_6">
    <path d="M 54 34.56 
L 388.8 34.56 
" style="fill: none; stroke: #000000; stroke-width: 0.8; stroke-linejoin: miter; stroke-linecap: square"/>
   </g>
  </g>
 </g>
 <defs>
  <clipPath id="p905f0867ab">
   <rect x="54" y="34.56" width="334.8" height="217.44"/>
  </clipPath>
 </defs>
</svg>
