<?xml version="1.0" encoding="utf-8" standalone="no"?>
<!DOCTYPE svg PUBLIC "-//W3C//DTD SVG 1.1//EN"
  "http://www.w3.org/Graphics/SVG/1.1/DTD/svg11.dtd">
<svg xmlns:xlink="http://www.w3.org/1999/xlink" width="432pt" height="288pt" viewBox="0 0 432 288" xmlns="http://www.w3.org/2000/svg" version="1.1">
 <metadata>
  <rdf:RDF xmlns:dc="http://purl.org/dc/elements/1.1/" xmlns:cc="http://creativecommons.org/ns#" xmlns:rdf="http://www.w3.org/1999/02/22-rdf-syntax-ns#">
   <cc:Work>
    <dc:type rdf:resource="http://purl.org/dc/dcmitype/StillImage"/>
    <dc:date>2022-09-16T11:04:32.738893</dc:date>
    <dc:format>image/svg+xml</dc:format>
    <dc:creator>
     <cc:Agent>
      <dc:title>Matplotlib v3.5.1, https://matplotlib.org/</dc:title>
     </cc:Agent>
    </dc:creator>
   </cc:Work>
  </rdf:RDF>
 </metadata>
 <defs>
  <style type="text/css">*{stroke-linejoin: round; stroke-linecap: butt}</style>
 </defs>
 <g id="figure_1">
  <g id="patch_1">
   <path d="M 0 288 
L 432 288 
L 432 0 
L 0 0 
z
" style="fill: #ffffff"/>
  </g>
  <g id="axes_1">
   <g id="patch_2">
    <path d="M 54 252 
L 388.8 252 
L 388.8 34.56 
L 54 34.56 
z
" style="fill: #ffffff"/>
   </g>
   <g id="matplotlib.axis_1">
    <g id="xtick_1">
     <g id="line2d_1">
      <defs>
       <path id="mb0ba3b433f" d="M 0 0 
L 0 3.5 
" style="stroke: #000000; stroke-width: 0.8"/>
      </defs>
      <g>
       <use xlink:href="#mb0ba3b433f" x="69.218182" y="252" style="stroke: #000000; stroke-width: 0.8"/>
      </g>
     </g>
     <g id="text_1">
      <!-- 0 -->
      <g transform="translate(66.036932 266.598437)scale(0.1 -0.1)">
       <defs>
        <path id="DejaVuSans-30" d="M 2034 4250 
Q 1547 4250 1301 3770 
Q 1056 3291 1056 2328 
Q 1056 1369 1301 889 
Q 1547 409 2034 409 
Q 2525 409 2770 889 
Q 3016 1369 3016 2328 
Q 3016 3291 2770 3770 
Q 2525 4250 2034 4250 
z
M 2034 4750 
Q 2819 4750 3233 4129 
Q 3647 3509 3647 2328 
Q 3647 1150 3233 529 
Q 2819 -91 2034 -91 
Q 1250 -91 836 529 
Q 422 1150 422 2328 
Q 422 3509 836 4129 
Q 1250 4750 2034 4750 
z
" transform="scale(0.015625)"/>
       </defs>
       <use xlink:href="#DejaVuSans-30"/>
      </g>
     </g>
    </g>
    <g id="xtick_2">
     <g id="line2d_2">
      <g>
       <use xlink:href="#mb0ba3b433f" x="130.705785" y="252" style="stroke: #000000; stroke-width: 0.8"/>
      </g>
     </g>
     <g id="text_2">
      <!-- 20 -->
      <g transform="translate(124.343285 266.598437)scale(0.1 -0.1)">
       <defs>
        <path id="DejaVuSans-32" d="M 1228 531 
L 3431 531 
L 3431 0 
L 469 0 
L 469 531 
Q 828 903 1448 1529 
Q 2069 2156 2228 2338 
Q 2531 2678 2651 2914 
Q 2772 3150 2772 3378 
Q 2772 3750 2511 3984 
Q 2250 4219 1831 4219 
Q 1534 4219 1204 4116 
Q 875 4013 500 3803 
L 500 4441 
Q 881 4594 1212 4672 
Q 1544 4750 1819 4750 
Q 2544 4750 2975 4387 
Q 3406 4025 3406 3419 
Q 3406 3131 3298 2873 
Q 3191 2616 2906 2266 
Q 2828 2175 2409 1742 
Q 1991 1309 1228 531 
z
" transform="scale(0.015625)"/>
       </defs>
       <use xlink:href="#DejaVuSans-32"/>
       <use xlink:href="#DejaVuSans-30" x="63.623047"/>
      </g>
     </g>
    </g>
    <g id="xtick_3">
     <g id="line2d_3">
      <g>
       <use xlink:href="#mb0ba3b433f" x="192.193388" y="252" style="stroke: #000000; stroke-width: 0.8"/>
      </g>
     </g>
     <g id="text_3">
      <!-- 40 -->
      <g transform="translate(185.830888 266.598437)scale(0.1 -0.1)">
       <defs>
        <path id="DejaVuSans-34" d="M 2419 4116 
L 825 1625 
L 2419 1625 
L 2419 4116 
z
M 2253 4666 
L 3047 4666 
L 3047 1625 
L 3713 1625 
L 3713 1100 
L 3047 1100 
L 3047 0 
L 2419 0 
L 2419 1100 
L 313 1100 
L 313 1709 
L 2253 4666 
z
" transform="scale(0.015625)"/>
       </defs>
       <use xlink:href="#DejaVuSans-34"/>
       <use xlink:href="#DejaVuSans-30" x="63.623047"/>
      </g>
     </g>
    </g>
    <g id="xtick_4">
     <g id="line2d_4">
      <g>
       <use xlink:href="#mb0ba3b433f" x="253.680992" y="252" style="stroke: #000000; stroke-width: 0.8"/>
      </g>
     </g>
     <g id="text_4">
      <!-- 60 -->
      <g transform="translate(247.318492 266.598437)scale(0.1 -0.1)">
       <defs>
        <path id="DejaVuSans-36" d="M 2113 2584 
Q 1688 2584 1439 2293 
Q 1191 2003 1191 1497 
Q 1191 994 1439 701 
Q 1688 409 2113 409 
Q 2538 409 2786 701 
Q 3034 994 3034 1497 
Q 3034 2003 2786 2293 
Q 2538 2584 2113 2584 
z
M 3366 4563 
L 3366 3988 
Q 3128 4100 2886 4159 
Q 2644 4219 2406 4219 
Q 1781 4219 1451 3797 
Q 1122 3375 1075 2522 
Q 1259 2794 1537 2939 
Q 1816 3084 2150 3084 
Q 2853 3084 3261 2657 
Q 3669 2231 3669 1497 
Q 3669 778 3244 343 
Q 2819 -91 2113 -91 
Q 1303 -91 875 529 
Q 447 1150 447 2328 
Q 447 3434 972 4092 
Q 1497 4750 2381 4750 
Q 2619 4750 2861 4703 
Q 3103 4656 3366 4563 
z
" transform="scale(0.015625)"/>
       </defs>
       <use xlink:href="#DejaVuSans-36"/>
       <use xlink:href="#DejaVuSans-30" x="63.623047"/>
      </g>
     </g>
    </g>
    <g id="xtick_5">
     <g id="line2d_5">
      <g>
       <use xlink:href="#mb0ba3b433f" x="315.168595" y="252" style="stroke: #000000; stroke-width: 0.8"/>
      </g>
     </g>
     <g id="text_5">
      <!-- 80 -->
      <g transform="translate(308.806095 266.598437)scale(0.1 -0.1)">
       <defs>
        <path id="DejaVuSans-38" d="M 2034 2216 
Q 1584 2216 1326 1975 
Q 1069 1734 1069 1313 
Q 1069 891 1326 650 
Q 1584 409 2034 409 
Q 2484 409 2743 651 
Q 3003 894 3003 1313 
Q 3003 1734 2745 1975 
Q 2488 2216 2034 2216 
z
M 1403 2484 
Q 997 2584 770 2862 
Q 544 3141 544 3541 
Q 544 4100 942 4425 
Q 1341 4750 2034 4750 
Q 2731 4750 3128 4425 
Q 3525 4100 3525 3541 
Q 3525 3141 3298 2862 
Q 3072 2584 2669 2484 
Q 3125 2378 3379 2068 
Q 3634 1759 3634 1313 
Q 3634 634 3220 271 
Q 2806 -91 2034 -91 
Q 1263 -91 848 271 
Q 434 634 434 1313 
Q 434 1759 690 2068 
Q 947 2378 1403 2484 
z
M 1172 3481 
Q 1172 3119 1398 2916 
Q 1625 2713 2034 2713 
Q 2441 2713 2670 2916 
Q 2900 3119 2900 3481 
Q 2900 3844 2670 4047 
Q 2441 4250 2034 4250 
Q 1625 4250 1398 4047 
Q 1172 3844 1172 3481 
z
" transform="scale(0.015625)"/>
       </defs>
       <use xlink:href="#DejaVuSans-38"/>
       <use xlink:href="#DejaVuSans-30" x="63.623047"/>
      </g>
     </g>
    </g>
    <g id="xtick_6">
     <g id="line2d_6">
      <g>
       <use xlink:href="#mb0ba3b433f" x="376.656198" y="252" style="stroke: #000000; stroke-width: 0.8"/>
      </g>
     </g>
     <g id="text_6">
      <!-- 100 -->
      <g transform="translate(367.112448 266.598437)scale(0.1 -0.1)">
       <defs>
        <path id="DejaVuSans-31" d="M 794 531 
L 1825 531 
L 1825 4091 
L 703 3866 
L 703 4441 
L 1819 4666 
L 2450 4666 
L 2450 531 
L 3481 531 
L 3481 0 
L 794 0 
L 794 531 
z
" transform="scale(0.015625)"/>
       </defs>
       <use xlink:href="#DejaVuSans-31"/>
       <use xlink:href="#DejaVuSans-30" x="63.623047"/>
       <use xlink:href="#DejaVuSans-30" x="127.246094"/>
      </g>
     </g>
    </g>
   </g>
   <g id="matplotlib.axis_2">
    <g id="ytick_1">
     <g id="line2d_7">
      <defs>
       <path id="m5ba301e68d" d="M 0 0 
L -3.5 0 
" style="stroke: #000000; stroke-width: 0.8"/>
      </defs>
      <g>
       <use xlink:href="#m5ba301e68d" x="54" y="226.091677" style="stroke: #000000; stroke-width: 0.8"/>
      </g>
     </g>
     <g id="text_7">
      <!-- −0.75 -->
      <g transform="translate(16.354687 229.890896)scale(0.1 -0.1)">
       <defs>
        <path id="DejaVuSans-2212" d="M 678 2272 
L 4684 2272 
L 4684 1741 
L 678 1741 
L 678 2272 
z
" transform="scale(0.015625)"/>
        <path id="DejaVuSans-2e" d="M 684 794 
L 1344 794 
L 1344 0 
L 684 0 
L 684 794 
z
" transform="scale(0.015625)"/>
        <path id="DejaVuSans-37" d="M 525 4666 
L 3525 4666 
L 3525 4397 
L 1831 0 
L 1172 0 
L 2766 4134 
L 525 4134 
L 525 4666 
z
" transform="scale(0.015625)"/>
        <path id="DejaVuSans-35" d="M 691 4666 
L 3169 4666 
L 3169 4134 
L 1269 4134 
L 1269 2991 
Q 1406 3038 1543 3061 
Q 1681 3084 1819 3084 
Q 2600 3084 3056 2656 
Q 3513 2228 3513 1497 
Q 3513 744 3044 326 
Q 2575 -91 1722 -91 
Q 1428 -91 1123 -41 
Q 819 9 494 109 
L 494 744 
Q 775 591 1075 516 
Q 1375 441 1709 441 
Q 2250 441 2565 725 
Q 2881 1009 2881 1497 
Q 2881 1984 2565 2268 
Q 2250 2553 1709 2553 
Q 1456 2553 1204 2497 
Q 953 2441 691 2322 
L 691 4666 
z
" transform="scale(0.015625)"/>
       </defs>
       <use xlink:href="#DejaVuSans-2212"/>
       <use xlink:href="#DejaVuSans-30" x="83.789062"/>
       <use xlink:href="#DejaVuSans-2e" x="147.412109"/>
       <use xlink:href="#DejaVuSans-37" x="179.199219"/>
       <use xlink:href="#DejaVuSans-35" x="242.822266"/>
      </g>
     </g>
    </g>
    <g id="ytick_2">
     <g id="line2d_8">
      <g>
       <use xlink:href="#m5ba301e68d" x="54" y="200.141957" style="stroke: #000000; stroke-width: 0.8"/>
      </g>
     </g>
     <g id="text_8">
      <!-- −0.50 -->
      <g transform="translate(16.354687 203.941176)scale(0.1 -0.1)">
       <use xlink:href="#DejaVuSans-2212"/>
       <use xlink:href="#DejaVuSans-30" x="83.789062"/>
       <use xlink:href="#DejaVuSans-2e" x="147.412109"/>
       <use xlink:href="#DejaVuSans-35" x="179.199219"/>
       <use xlink:href="#DejaVuSans-30" x="242.822266"/>
      </g>
     </g>
    </g>
    <g id="ytick_3">
     <g id="line2d_9">
      <g>
       <use xlink:href="#m5ba301e68d" x="54" y="174.192237" style="stroke: #000000; stroke-width: 0.8"/>
      </g>
     </g>
     <g id="text_9">
      <!-- −0.25 -->
      <g transform="translate(16.354687 177.991456)scale(0.1 -0.1)">
       <use xlink:href="#DejaVuSans-2212"/>
       <use xlink:href="#DejaVuSans-30" x="83.789062"/>
       <use xlink:href="#DejaVuSans-2e" x="147.412109"/>
       <use xlink:href="#DejaVuSans-32" x="179.199219"/>
       <use xlink:href="#DejaVuSans-35" x="242.822266"/>
      </g>
     </g>
    </g>
    <g id="ytick_4">
     <g id="line2d_10">
      <g>
       <use xlink:href="#m5ba301e68d" x="54" y="148.242517" style="stroke: #000000; stroke-width: 0.8"/>
      </g>
     </g>
     <g id="text_10">
      <!-- 0.00 -->
      <g transform="translate(24.734375 152.041736)scale(0.1 -0.1)">
       <use xlink:href="#DejaVuSans-30"/>
       <use xlink:href="#DejaVuSans-2e" x="63.623047"/>
       <use xlink:href="#DejaVuSans-30" x="95.410156"/>
       <use xlink:href="#DejaVuSans-30" x="159.033203"/>
      </g>
     </g>
    </g>
    <g id="ytick_5">
     <g id="line2d_11">
      <g>
       <use xlink:href="#m5ba301e68d" x="54" y="122.292797" style="stroke: #000000; stroke-width: 0.8"/>
      </g>
     </g>
     <g id="text_11">
      <!-- 0.25 -->
      <g transform="translate(24.734375 126.092015)scale(0.1 -0.1)">
       <use xlink:href="#DejaVuSans-30"/>
       <use xlink:href="#DejaVuSans-2e" x="63.623047"/>
       <use xlink:href="#DejaVuSans-32" x="95.410156"/>
       <use xlink:href="#DejaVuSans-35" x="159.033203"/>
      </g>
     </g>
    </g>
    <g id="ytick_6">
     <g id="line2d_12">
      <g>
       <use xlink:href="#m5ba301e68d" x="54" y="96.343077" style="stroke: #000000; stroke-width: 0.8"/>
      </g>
     </g>
     <g id="text_12">
      <!-- 0.50 -->
      <g transform="translate(24.734375 100.142295)scale(0.1 -0.1)">
       <use xlink:href="#DejaVuSans-30"/>
       <use xlink:href="#DejaVuSans-2e" x="63.623047"/>
       <use xlink:href="#DejaVuSans-35" x="95.410156"/>
       <use xlink:href="#DejaVuSans-30" x="159.033203"/>
      </g>
     </g>
    </g>
    <g id="ytick_7">
     <g id="line2d_13">
      <g>
       <use xlink:href="#m5ba301e68d" x="54" y="70.393356" style="stroke: #000000; stroke-width: 0.8"/>
      </g>
     </g>
     <g id="text_13">
      <!-- 0.75 -->
      <g transform="translate(24.734375 74.192575)scale(0.1 -0.1)">
       <use xlink:href="#DejaVuSans-30"/>
       <use xlink:href="#DejaVuSans-2e" x="63.623047"/>
       <use xlink:href="#DejaVuSans-37" x="95.410156"/>
       <use xlink:href="#DejaVuSans-35" x="159.033203"/>
      </g>
     </g>
    </g>
    <g id="ytick_8">
     <g id="line2d_14">
      <g>
       <use xlink:href="#m5ba301e68d" x="54" y="44.443636" style="stroke: #000000; stroke-width: 0.8"/>
      </g>
     </g>
     <g id="text_14">
      <!-- 1.00 -->
      <g transform="translate(24.734375 48.242855)scale(0.1 -0.1)">
       <use xlink:href="#DejaVuSans-31"/>
       <use xlink:href="#DejaVuSans-2e" x="63.623047"/>
       <use xlink:href="#DejaVuSans-30" x="95.410156"/>
       <use xlink:href="#DejaVuSans-30" x="159.033203"/>
      </g>
     </g>
    </g>
   </g>
   <g id="LineCollection_1">
    <path d="M 69.218182 148.242517 
L 69.218182 44.443636 
" clip-path="url(#pac1d3d71cb)" style="fill: none; stroke: #1f77b4; stroke-width: 1.5"/>
    <path d="M 72.292562 148.242517 
L 72.292562 50.511101 
" clip-path="url(#pac1d3d71cb)" style="fill: none; stroke: #1f77b4; stroke-width: 1.5"/>
    <path d="M 75.366942 148.242517 
L 75.366942 65.938562 
" clip-path="url(#pac1d3d71cb)" style="fill: none; stroke: #1f77b4; stroke-width: 1.5"/>
    <path d="M 78.441322 148.242517 
L 78.441322 89.043167 
" clip-path="url(#pac1d3d71cb)" style="fill: none; stroke: #1f77b4; stroke-width: 1.5"/>
    <path d="M 81.515702 148.242517 
L 81.515702 117.430806 
" clip-path="url(#pac1d3d71cb)" style="fill: none; stroke: #1f77b4; stroke-width: 1.5"/>
    <path d="M 84.590083 148.242517 
L 84.590083 148.242517 
" clip-path="url(#pac1d3d71cb)" style="fill: none; stroke: #1f77b4; stroke-width: 1.5"/>
    <path d="M 87.664463 148.242517 
L 87.664463 178.441074 
" clip-path="url(#pac1d3d71cb)" style="fill: none; stroke: #1f77b4; stroke-width: 1.5"/>
    <path d="M 90.738843 148.242517 
L 90.738843 205.109176 
" clip-path="url(#pac1d3d71cb)" style="fill: none; stroke: #1f77b4; stroke-width: 1.5"/>
    <path d="M 93.813223 148.242517 
L 93.813223 225.730056 
" clip-path="url(#pac1d3d71cb)" style="fill: none; stroke: #1f77b4; stroke-width: 1.5"/>
    <path d="M 96.887603 148.242517 
L 96.887603 238.423662 
" clip-path="url(#pac1d3d71cb)" style="fill: none; stroke: #1f77b4; stroke-width: 1.5"/>
    <path d="M 99.961983 148.242517 
L 99.961983 242.116364 
" clip-path="url(#pac1d3d71cb)" style="fill: none; stroke: #1f77b4; stroke-width: 1.5"/>
    <path d="M 103.036364 148.242517 
L 103.036364 236.629057 
" clip-path="url(#pac1d3d71cb)" style="fill: none; stroke: #1f77b4; stroke-width: 1.5"/>
    <path d="M 106.110744 148.242517 
L 106.110744 222.676738 
" clip-path="url(#pac1d3d71cb)" style="fill: none; stroke: #1f77b4; stroke-width: 1.5"/>
    <path d="M 109.185124 148.242517 
L 109.185124 201.781348 
" clip-path="url(#pac1d3d71cb)" style="fill: none; stroke: #1f77b4; stroke-width: 1.5"/>
    <path d="M 112.259504 148.242517 
L 112.259504 176.108076 
" clip-path="url(#pac1d3d71cb)" style="fill: none; stroke: #1f77b4; stroke-width: 1.5"/>
    <path d="M 115.333884 148.242517 
L 115.333884 148.242517 
" clip-path="url(#pac1d3d71cb)" style="fill: none; stroke: #1f77b4; stroke-width: 1.5"/>
    <path d="M 118.408264 148.242517 
L 118.408264 120.931483 
" clip-path="url(#pac1d3d71cb)" style="fill: none; stroke: #1f77b4; stroke-width: 1.5"/>
    <path d="M 121.482645 148.242517 
L 121.482645 96.813329 
" clip-path="url(#pac1d3d71cb)" style="fill: none; stroke: #1f77b4; stroke-width: 1.5"/>
    <path d="M 124.557025 148.242517 
L 124.557025 78.164175 
" clip-path="url(#pac1d3d71cb)" style="fill: none; stroke: #1f77b4; stroke-width: 1.5"/>
    <path d="M 127.631405 148.242517 
L 127.631405 66.684306 
" clip-path="url(#pac1d3d71cb)" style="fill: none; stroke: #1f77b4; stroke-width: 1.5"/>
    <path d="M 130.705785 148.242517 
L 130.705785 63.344692 
" clip-path="url(#pac1d3d71cb)" style="fill: none; stroke: #1f77b4; stroke-width: 1.5"/>
    <path d="M 133.780165 148.242517 
L 133.780165 68.307314 
" clip-path="url(#pac1d3d71cb)" style="fill: none; stroke: #1f77b4; stroke-width: 1.5"/>
    <path d="M 136.854545 148.242517 
L 136.854545 80.925541 
" clip-path="url(#pac1d3d71cb)" style="fill: none; stroke: #1f77b4; stroke-width: 1.5"/>
    <path d="M 139.928926 148.242517 
L 139.928926 99.822958 
" clip-path="url(#pac1d3d71cb)" style="fill: none; stroke: #1f77b4; stroke-width: 1.5"/>
    <path d="M 143.003306 148.242517 
L 143.003306 123.041405 
" clip-path="url(#pac1d3d71cb)" style="fill: none; stroke: #1f77b4; stroke-width: 1.5"/>
    <path d="M 146.077686 148.242517 
L 146.077686 148.242517 
" clip-path="url(#pac1d3d71cb)" style="fill: none; stroke: #1f77b4; stroke-width: 1.5"/>
    <path d="M 149.152066 148.242517 
L 149.152066 172.942127 
" clip-path="url(#pac1d3d71cb)" style="fill: none; stroke: #1f77b4; stroke-width: 1.5"/>
    <path d="M 152.226446 148.242517 
L 152.226446 194.754152 
" clip-path="url(#pac1d3d71cb)" style="fill: none; stroke: #1f77b4; stroke-width: 1.5"/>
    <path d="M 155.300826 148.242517 
L 155.300826 211.620113 
" clip-path="url(#pac1d3d71cb)" style="fill: none; stroke: #1f77b4; stroke-width: 1.5"/>
    <path d="M 158.375207 148.242517 
L 158.375207 222.002301 
" clip-path="url(#pac1d3d71cb)" style="fill: none; stroke: #1f77b4; stroke-width: 1.5"/>
    <path d="M 161.449587 148.242517 
L 161.449587 225.022587 
" clip-path="url(#pac1d3d71cb)" style="fill: none; stroke: #1f77b4; stroke-width: 1.5"/>
    <path d="M 164.523967 148.242517 
L 164.523967 220.534481 
" clip-path="url(#pac1d3d71cb)" style="fill: none; stroke: #1f77b4; stroke-width: 1.5"/>
    <path d="M 167.598347 148.242517 
L 167.598347 209.122783 
" clip-path="url(#pac1d3d71cb)" style="fill: none; stroke: #1f77b4; stroke-width: 1.5"/>
    <path d="M 170.672727 148.242517 
L 170.672727 192.032298 
" clip-path="url(#pac1d3d71cb)" style="fill: none; stroke: #1f77b4; stroke-width: 1.5"/>
    <path d="M 173.747107 148.242517 
L 173.747107 171.033951 
" clip-path="url(#pac1d3d71cb)" style="fill: none; stroke: #1f77b4; stroke-width: 1.5"/>
    <path d="M 176.821488 148.242517 
L 176.821488 148.242517 
" clip-path="url(#pac1d3d71cb)" style="fill: none; stroke: #1f77b4; stroke-width: 1.5"/>
    <path d="M 179.895868 148.242517 
L 179.895868 125.904632 
" clip-path="url(#pac1d3d71cb)" style="fill: none; stroke: #1f77b4; stroke-width: 1.5"/>
    <path d="M 182.970248 148.242517 
L 182.970248 106.178228 
" clip-path="url(#pac1d3d71cb)" style="fill: none; stroke: #1f77b4; stroke-width: 1.5"/>
    <path d="M 186.044628 148.242517 
L 186.044628 90.924955 
" clip-path="url(#pac1d3d71cb)" style="fill: none; stroke: #1f77b4; stroke-width: 1.5"/>
    <path d="M 189.119008 148.242517 
L 189.119008 81.53549 
" clip-path="url(#pac1d3d71cb)" style="fill: none; stroke: #1f77b4; stroke-width: 1.5"/>
    <path d="M 192.193388 148.242517 
L 192.193388 78.803997 
" clip-path="url(#pac1d3d71cb)" style="fill: none; stroke: #1f77b4; stroke-width: 1.5"/>
    <path d="M 195.267769 148.242517 
L 195.267769 82.86296 
" clip-path="url(#pac1d3d71cb)" style="fill: none; stroke: #1f77b4; stroke-width: 1.5"/>
    <path d="M 198.342149 148.242517 
L 198.342149 93.183496 
" clip-path="url(#pac1d3d71cb)" style="fill: none; stroke: #1f77b4; stroke-width: 1.5"/>
    <path d="M 201.416529 148.242517 
L 201.416529 108.639824 
" clip-path="url(#pac1d3d71cb)" style="fill: none; stroke: #1f77b4; stroke-width: 1.5"/>
    <path d="M 204.490909 148.242517 
L 204.490909 127.630352 
" clip-path="url(#pac1d3d71cb)" style="fill: none; stroke: #1f77b4; stroke-width: 1.5"/>
    <path d="M 207.565289 148.242517 
L 207.565289 148.242517 
" clip-path="url(#pac1d3d71cb)" style="fill: none; stroke: #1f77b4; stroke-width: 1.5"/>
    <path d="M 210.639669 148.242517 
L 210.639669 168.444499 
" clip-path="url(#pac1d3d71cb)" style="fill: none; stroke: #1f77b4; stroke-width: 1.5"/>
    <path d="M 213.71405 148.242517 
L 213.71405 186.284706 
" clip-path="url(#pac1d3d71cb)" style="fill: none; stroke: #1f77b4; stroke-width: 1.5"/>
    <path d="M 216.78843 148.242517 
L 216.78843 200.079492 
" clip-path="url(#pac1d3d71cb)" style="fill: none; stroke: #1f77b4; stroke-width: 1.5"/>
    <path d="M 219.86281 148.242517 
L 219.86281 208.571156 
" clip-path="url(#pac1d3d71cb)" style="fill: none; stroke: #1f77b4; stroke-width: 1.5"/>
    <path d="M 222.93719 148.242517 
L 222.93719 211.041469 
" clip-path="url(#pac1d3d71cb)" style="fill: none; stroke: #1f77b4; stroke-width: 1.5"/>
    <path d="M 226.01157 148.242517 
L 226.01157 207.370616 
" clip-path="url(#pac1d3d71cb)" style="fill: none; stroke: #1f77b4; stroke-width: 1.5"/>
    <path d="M 229.08595 148.242517 
L 229.08595 198.036909 
" clip-path="url(#pac1d3d71cb)" style="fill: none; stroke: #1f77b4; stroke-width: 1.5"/>
    <path d="M 232.160331 148.242517 
L 232.160331 184.058483 
" clip-path="url(#pac1d3d71cb)" style="fill: none; stroke: #1f77b4; stroke-width: 1.5"/>
    <path d="M 235.234711 148.242517 
L 235.234711 166.883789 
" clip-path="url(#pac1d3d71cb)" style="fill: none; stroke: #1f77b4; stroke-width: 1.5"/>
    <path d="M 238.309091 148.242517 
L 238.309091 148.242517 
" clip-path="url(#pac1d3d71cb)" style="fill: none; stroke: #1f77b4; stroke-width: 1.5"/>
    <path d="M 241.383471 148.242517 
L 241.383471 129.972206 
" clip-path="url(#pac1d3d71cb)" style="fill: none; stroke: #1f77b4; stroke-width: 1.5"/>
    <path d="M 244.457851 148.242517 
L 244.457851 113.837843 
" clip-path="url(#pac1d3d71cb)" style="fill: none; stroke: #1f77b4; stroke-width: 1.5"/>
    <path d="M 247.532231 148.242517 
L 247.532231 101.362085 
" clip-path="url(#pac1d3d71cb)" style="fill: none; stroke: #1f77b4; stroke-width: 1.5"/>
    <path d="M 250.606612 148.242517 
L 250.606612 93.682377 
" clip-path="url(#pac1d3d71cb)" style="fill: none; stroke: #1f77b4; stroke-width: 1.5"/>
    <path d="M 253.680992 148.242517 
L 253.680992 91.44827 
" clip-path="url(#pac1d3d71cb)" style="fill: none; stroke: #1f77b4; stroke-width: 1.5"/>
    <path d="M 256.755372 148.242517 
L 256.755372 94.768124 
" clip-path="url(#pac1d3d71cb)" style="fill: none; stroke: #1f77b4; stroke-width: 1.5"/>
    <path d="M 259.829752 148.242517 
L 259.829752 103.209361 
" clip-path="url(#pac1d3d71cb)" style="fill: none; stroke: #1f77b4; stroke-width: 1.5"/>
    <path d="M 262.904132 148.242517 
L 262.904132 115.851199 
" clip-path="url(#pac1d3d71cb)" style="fill: none; stroke: #1f77b4; stroke-width: 1.5"/>
    <path d="M 265.978512 148.242517 
L 265.978512 131.383685 
" clip-path="url(#pac1d3d71cb)" style="fill: none; stroke: #1f77b4; stroke-width: 1.5"/>
    <path d="M 269.052893 148.242517 
L 269.052893 148.242517 
" clip-path="url(#pac1d3d71cb)" style="fill: none; stroke: #1f77b4; stroke-width: 1.5"/>
    <path d="M 272.127273 148.242517 
L 272.127273 164.765858 
" clip-path="url(#pac1d3d71cb)" style="fill: none; stroke: #1f77b4; stroke-width: 1.5"/>
    <path d="M 275.201653 148.242517 
L 275.201653 179.357487 
" clip-path="url(#pac1d3d71cb)" style="fill: none; stroke: #1f77b4; stroke-width: 1.5"/>
    <path d="M 278.276033 148.242517 
L 278.276033 190.640339 
" clip-path="url(#pac1d3d71cb)" style="fill: none; stroke: #1f77b4; stroke-width: 1.5"/>
    <path d="M 281.350413 148.242517 
L 281.350413 197.585729 
" clip-path="url(#pac1d3d71cb)" style="fill: none; stroke: #1f77b4; stroke-width: 1.5"/>
    <path d="M 284.424793 148.242517 
L 284.424793 199.606216 
" clip-path="url(#pac1d3d71cb)" style="fill: none; stroke: #1f77b4; stroke-width: 1.5"/>
    <path d="M 287.499174 148.242517 
L 287.499174 196.603799 
" clip-path="url(#pac1d3d71cb)" style="fill: none; stroke: #1f77b4; stroke-width: 1.5"/>
    <path d="M 290.573554 148.242517 
L 290.573554 188.969695 
" clip-path="url(#pac1d3d71cb)" style="fill: none; stroke: #1f77b4; stroke-width: 1.5"/>
    <path d="M 293.647934 148.242517 
L 293.647934 177.536644 
" clip-path="url(#pac1d3d71cb)" style="fill: none; stroke: #1f77b4; stroke-width: 1.5"/>
    <path d="M 296.722314 148.242517 
L 296.722314 163.489342 
" clip-path="url(#pac1d3d71cb)" style="fill: none; stroke: #1f77b4; stroke-width: 1.5"/>
    <path d="M 299.796694 148.242517 
L 299.796694 148.242517 
" clip-path="url(#pac1d3d71cb)" style="fill: none; stroke: #1f77b4; stroke-width: 1.5"/>
    <path d="M 302.871074 148.242517 
L 302.871074 133.299103 
" clip-path="url(#pac1d3d71cb)" style="fill: none; stroke: #1f77b4; stroke-width: 1.5"/>
    <path d="M 305.945455 148.242517 
L 305.945455 120.102695 
" clip-path="url(#pac1d3d71cb)" style="fill: none; stroke: #1f77b4; stroke-width: 1.5"/>
    <path d="M 309.019835 148.242517 
L 309.019835 109.898687 
" clip-path="url(#pac1d3d71cb)" style="fill: none; stroke: #1f77b4; stroke-width: 1.5"/>
    <path d="M 312.094215 148.242517 
L 312.094215 103.6174 
" clip-path="url(#pac1d3d71cb)" style="fill: none; stroke: #1f77b4; stroke-width: 1.5"/>
    <path d="M 315.168595 148.242517 
L 315.168595 101.790108 
" clip-path="url(#pac1d3d71cb)" style="fill: none; stroke: #1f77b4; stroke-width: 1.5"/>
    <path d="M 318.242975 148.242517 
L 318.242975 104.50544 
" clip-path="url(#pac1d3d71cb)" style="fill: none; stroke: #1f77b4; stroke-width: 1.5"/>
    <path d="M 321.317355 148.242517 
L 321.317355 111.409587 
" clip-path="url(#pac1d3d71cb)" style="fill: none; stroke: #1f77b4; stroke-width: 1.5"/>
    <path d="M 324.391736 148.242517 
L 324.391736 121.749433 
" clip-path="url(#pac1d3d71cb)" style="fill: none; stroke: #1f77b4; stroke-width: 1.5"/>
    <path d="M 327.466116 148.242517 
L 327.466116 134.453561 
" clip-path="url(#pac1d3d71cb)" style="fill: none; stroke: #1f77b4; stroke-width: 1.5"/>
    <path d="M 330.540496 148.242517 
L 330.540496 148.242517 
" clip-path="url(#pac1d3d71cb)" style="fill: none; stroke: #1f77b4; stroke-width: 1.5"/>
    <path d="M 333.614876 148.242517 
L 333.614876 161.757072 
" clip-path="url(#pac1d3d71cb)" style="fill: none; stroke: #1f77b4; stroke-width: 1.5"/>
    <path d="M 336.689256 148.242517 
L 336.689256 173.691667 
" clip-path="url(#pac1d3d71cb)" style="fill: none; stroke: #1f77b4; stroke-width: 1.5"/>
    <path d="M 339.763636 148.242517 
L 339.763636 182.919989 
" clip-path="url(#pac1d3d71cb)" style="fill: none; stroke: #1f77b4; stroke-width: 1.5"/>
    <path d="M 342.838017 148.242517 
L 342.838017 188.600673 
" clip-path="url(#pac1d3d71cb)" style="fill: none; stroke: #1f77b4; stroke-width: 1.5"/>
    <path d="M 345.912397 148.242517 
L 345.912397 190.253242 
" clip-path="url(#pac1d3d71cb)" style="fill: none; stroke: #1f77b4; stroke-width: 1.5"/>
    <path d="M 348.986777 148.242517 
L 348.986777 187.797545 
" clip-path="url(#pac1d3d71cb)" style="fill: none; stroke: #1f77b4; stroke-width: 1.5"/>
    <path d="M 352.061157 148.242517 
L 352.061157 181.553559 
" clip-path="url(#pac1d3d71cb)" style="fill: none; stroke: #1f77b4; stroke-width: 1.5"/>
    <path d="M 355.135537 148.242517 
L 355.135537 172.202386 
" clip-path="url(#pac1d3d71cb)" style="fill: none; stroke: #1f77b4; stroke-width: 1.5"/>
    <path d="M 358.209917 148.242517 
L 358.209917 160.713001 
" clip-path="url(#pac1d3d71cb)" style="fill: none; stroke: #1f77b4; stroke-width: 1.5"/>
    <path d="M 361.284298 148.242517 
L 361.284298 148.242517 
" clip-path="url(#pac1d3d71cb)" style="fill: none; stroke: #1f77b4; stroke-width: 1.5"/>
    <path d="M 364.358678 148.242517 
L 364.358678 136.020195 
" clip-path="url(#pac1d3d71cb)" style="fill: none; stroke: #1f77b4; stroke-width: 1.5"/>
    <path d="M 367.433058 148.242517 
L 367.433058 125.226762 
" clip-path="url(#pac1d3d71cb)" style="fill: none; stroke: #1f77b4; stroke-width: 1.5"/>
    <path d="M 370.507438 148.242517 
L 370.507438 116.880832 
" clip-path="url(#pac1d3d71cb)" style="fill: none; stroke: #1f77b4; stroke-width: 1.5"/>
    <path d="M 373.581818 148.242517 
L 373.581818 111.743324 
" clip-path="url(#pac1d3d71cb)" style="fill: none; stroke: #1f77b4; stroke-width: 1.5"/>
   </g>
   <g id="line2d_15">
    <defs>
     <path id="m64f3bf0219" d="M 0 3 
C 0.795609 3 1.55874 2.683901 2.12132 2.12132 
C 2.683901 1.55874 3 0.795609 3 0 
C 3 -0.795609 2.683901 -1.55874 2.12132 -2.12132 
C 1.55874 -2.683901 0.795609 -3 0 -3 
C -0.795609 -3 -1.55874 -2.683901 -2.12132 -2.12132 
C -2.683901 -1.55874 -3 -0.795609 -3 0 
C -3 0.795609 -2.683901 1.55874 -2.12132 2.12132 
C -1.55874 2.683901 -0.795609 3 0 3 
z
" style="stroke: #1f77b4"/>
    </defs>
    <g clip-path="url(#pac1d3d71cb)">
     <use xlink:href="#m64f3bf0219" x="69.218182" y="44.443636" style="fill: #1f77b4; stroke: #1f77b4"/>
     <use xlink:href="#m64f3bf0219" x="72.292562" y="50.511101" style="fill: #1f77b4; stroke: #1f77b4"/>
     <use xlink:href="#m64f3bf0219" x="75.366942" y="65.938562" style="fill: #1f77b4; stroke: #1f77b4"/>
     <use xlink:href="#m64f3bf0219" x="78.441322" y="89.043167" style="fill: #1f77b4; stroke: #1f77b4"/>
     <use xlink:href="#m64f3bf0219" x="81.515702" y="117.430806" style="fill: #1f77b4; stroke: #1f77b4"/>
     <use xlink:href="#m64f3bf0219" x="84.590083" y="148.242517" style="fill: #1f77b4; stroke: #1f77b4"/>
     <use xlink:href="#m64f3bf0219" x="87.664463" y="178.441074" style="fill: #1f77b4; stroke: #1f77b4"/>
     <use xlink:href="#m64f3bf0219" x="90.738843" y="205.109176" style="fill: #1f77b4; stroke: #1f77b4"/>
     <use xlink:href="#m64f3bf0219" x="93.813223" y="225.730056" style="fill: #1f77b4; stroke: #1f77b4"/>
     <use xlink:href="#m64f3bf0219" x="96.887603" y="238.423662" style="fill: #1f77b4; stroke: #1f77b4"/>
     <use xlink:href="#m64f3bf0219" x="99.961983" y="242.116364" style="fill: #1f77b4; stroke: #1f77b4"/>
     <use xlink:href="#m64f3bf0219" x="103.036364" y="236.629057" style="fill: #1f77b4; stroke: #1f77b4"/>
     <use xlink:href="#m64f3bf0219" x="106.110744" y="222.676738" style="fill: #1f77b4; stroke: #1f77b4"/>
     <use xlink:href="#m64f3bf0219" x="109.185124" y="201.781348" style="fill: #1f77b4; stroke: #1f77b4"/>
     <use xlink:href="#m64f3bf0219" x="112.259504" y="176.108076" style="fill: #1f77b4; stroke: #1f77b4"/>
     <use xlink:href="#m64f3bf0219" x="115.333884" y="148.242517" style="fill: #1f77b4; stroke: #1f77b4"/>
     <use xlink:href="#m64f3bf0219" x="118.408264" y="120.931483" style="fill: #1f77b4; stroke: #1f77b4"/>
     <use xlink:href="#m64f3bf0219" x="121.482645" y="96.813329" style="fill: #1f77b4; stroke: #1f77b4"/>
     <use xlink:href="#m64f3bf0219" x="124.557025" y="78.164175" style="fill: #1f77b4; stroke: #1f77b4"/>
     <use xlink:href="#m64f3bf0219" x="127.631405" y="66.684306" style="fill: #1f77b4; stroke: #1f77b4"/>
     <use xlink:href="#m64f3bf0219" x="130.705785" y="63.344692" style="fill: #1f77b4; stroke: #1f77b4"/>
     <use xlink:href="#m64f3bf0219" x="133.780165" y="68.307314" style="fill: #1f77b4; stroke: #1f77b4"/>
     <use xlink:href="#m64f3bf0219" x="136.854545" y="80.925541" style="fill: #1f77b4; stroke: #1f77b4"/>
     <use xlink:href="#m64f3bf0219" x="139.928926" y="99.822958" style="fill: #1f77b4; stroke: #1f77b4"/>
     <use xlink:href="#m64f3bf0219" x="143.003306" y="123.041405" style="fill: #1f77b4; stroke: #1f77b4"/>
     <use xlink:href="#m64f3bf0219" x="146.077686" y="148.242517" style="fill: #1f77b4; stroke: #1f77b4"/>
     <use xlink:href="#m64f3bf0219" x="149.152066" y="172.942127" style="fill: #1f77b4; stroke: #1f77b4"/>
     <use xlink:href="#m64f3bf0219" x="152.226446" y="194.754152" style="fill: #1f77b4; stroke: #1f77b4"/>
     <use xlink:href="#m64f3bf0219" x="155.300826" y="211.620113" style="fill: #1f77b4; stroke: #1f77b4"/>
     <use xlink:href="#m64f3bf0219" x="158.375207" y="222.002301" style="fill: #1f77b4; stroke: #1f77b4"/>
     <use xlink:href="#m64f3bf0219" x="161.449587" y="225.022587" style="fill: #1f77b4; stroke: #1f77b4"/>
     <use xlink:href="#m64f3bf0219" x="164.523967" y="220.534481" style="fill: #1f77b4; stroke: #1f77b4"/>
     <use xlink:href="#m64f3bf0219" x="167.598347" y="209.122783" style="fill: #1f77b4; stroke: #1f77b4"/>
     <use xlink:href="#m64f3bf0219" x="170.672727" y="192.032298" style="fill: #1f77b4; stroke: #1f77b4"/>
     <use xlink:href="#m64f3bf0219" x="173.747107" y="171.033951" style="fill: #1f77b4; stroke: #1f77b4"/>
     <use xlink:href="#m64f3bf0219" x="176.821488" y="148.242517" style="fill: #1f77b4; stroke: #1f77b4"/>
     <use xlink:href="#m64f3bf0219" x="179.895868" y="125.904632" style="fill: #1f77b4; stroke: #1f77b4"/>
     <use xlink:href="#m64f3bf0219" x="182.970248" y="106.178228" style="fill: #1f77b4; stroke: #1f77b4"/>
     <use xlink:href="#m64f3bf0219" x="186.044628" y="90.924955" style="fill: #1f77b4; stroke: #1f77b4"/>
     <use xlink:href="#m64f3bf0219" x="189.119008" y="81.53549" style="fill: #1f77b4; stroke: #1f77b4"/>
     <use xlink:href="#m64f3bf0219" x="192.193388" y="78.803997" style="fill: #1f77b4; stroke: #1f77b4"/>
     <use xlink:href="#m64f3bf0219" x="195.267769" y="82.86296" style="fill: #1f77b4; stroke: #1f77b4"/>
     <use xlink:href="#m64f3bf0219" x="198.342149" y="93.183496" style="fill: #1f77b4; stroke: #1f77b4"/>
     <use xlink:href="#m64f3bf0219" x="201.416529" y="108.639824" style="fill: #1f77b4; stroke: #1f77b4"/>
     <use xlink:href="#m64f3bf0219" x="204.490909" y="127.630352" style="fill: #1f77b4; stroke: #1f77b4"/>
     <use xlink:href="#m64f3bf0219" x="207.565289" y="148.242517" style="fill: #1f77b4; stroke: #1f77b4"/>
     <use xlink:href="#m64f3bf0219" x="210.639669" y="168.444499" style="fill: #1f77b4; stroke: #1f77b4"/>
     <use xlink:href="#m64f3bf0219" x="213.71405" y="186.284706" style="fill: #1f77b4; stroke: #1f77b4"/>
     <use xlink:href="#m64f3bf0219" x="216.78843" y="200.079492" style="fill: #1f77b4; stroke: #1f77b4"/>
     <use xlink:href="#m64f3bf0219" x="219.86281" y="208.571156" style="fill: #1f77b4; stroke: #1f77b4"/>
     <use xlink:href="#m64f3bf0219" x="222.93719" y="211.041469" style="fill: #1f77b4; stroke: #1f77b4"/>
     <use xlink:href="#m64f3bf0219" x="226.01157" y="207.370616" style="fill: #1f77b4; stroke: #1f77b4"/>
     <use xlink:href="#m64f3bf0219" x="229.08595" y="198.036909" style="fill: #1f77b4; stroke: #1f77b4"/>
     <use xlink:href="#m64f3bf0219" x="232.160331" y="184.058483" style="fill: #1f77b4; stroke: #1f77b4"/>
     <use xlink:href="#m64f3bf0219" x="235.234711" y="166.883789" style="fill: #1f77b4; stroke: #1f77b4"/>
     <use xlink:href="#m64f3bf0219" x="238.309091" y="148.242517" style="fill: #1f77b4; stroke: #1f77b4"/>
     <use xlink:href="#m64f3bf0219" x="241.383471" y="129.972206" style="fill: #1f77b4; stroke: #1f77b4"/>
     <use xlink:href="#m64f3bf0219" x="244.457851" y="113.837843" style="fill: #1f77b4; stroke: #1f77b4"/>
     <use xlink:href="#m64f3bf0219" x="247.532231" y="101.362085" style="fill: #1f77b4; stroke: #1f77b4"/>
     <use xlink:href="#m64f3bf0219" x="250.606612" y="93.682377" style="fill: #1f77b4; stroke: #1f77b4"/>
     <use xlink:href="#m64f3bf0219" x="253.680992" y="91.44827" style="fill: #1f77b4; stroke: #1f77b4"/>
     <use xlink:href="#m64f3bf0219" x="256.755372" y="94.768124" style="fill: #1f77b4; stroke: #1f77b4"/>
     <use xlink:href="#m64f3bf0219" x="259.829752" y="103.209361" style="fill: #1f77b4; stroke: #1f77b4"/>
     <use xlink:href="#m64f3bf0219" x="262.904132" y="115.851199" style="fill: #1f77b4; stroke: #1f77b4"/>
     <use xlink:href="#m64f3bf0219" x="265.978512" y="131.383685" style="fill: #1f77b4; stroke: #1f77b4"/>
     <use xlink:href="#m64f3bf0219" x="269.052893" y="148.242517" style="fill: #1f77b4; stroke: #1f77b4"/>
     <use xlink:href="#m64f3bf0219" x="272.127273" y="164.765858" style="fill: #1f77b4; stroke: #1f77b4"/>
     <use xlink:href="#m64f3bf0219" x="275.201653" y="179.357487" style="fill: #1f77b4; stroke: #1f77b4"/>
     <use xlink:href="#m64f3bf0219" x="278.276033" y="190.640339" style="fill: #1f77b4; stroke: #1f77b4"/>
     <use xlink:href="#m64f3bf0219" x="281.350413" y="197.585729" style="fill: #1f77b4; stroke: #1f77b4"/>
     <use xlink:href="#m64f3bf0219" x="284.424793" y="199.606216" style="fill: #1f77b4; stroke: #1f77b4"/>
     <use xlink:href="#m64f3bf0219" x="287.499174" y="196.603799" style="fill: #1f77b4; stroke: #1f77b4"/>
     <use xlink:href="#m64f3bf0219" x="290.573554" y="188.969695" style="fill: #1f77b4; stroke: #1f77b4"/>
     <use xlink:href="#m64f3bf0219" x="293.647934" y="177.536644" style="fill: #1f77b4; stroke: #1f77b4"/>
     <use xlink:href="#m64f3bf0219" x="296.722314" y="163.489342" style="fill: #1f77b4; stroke: #1f77b4"/>
     <use xlink:href="#m64f3bf0219" x="299.796694" y="148.242517" style="fill: #1f77b4; stroke: #1f77b4"/>
     <use xlink:href="#m64f3bf0219" x="302.871074" y="133.299103" style="fill: #1f77b4; stroke: #1f77b4"/>
     <use xlink:href="#m64f3bf0219" x="305.945455" y="120.102695" style="fill: #1f77b4; stroke: #1f77b4"/>
     <use xlink:href="#m64f3bf0219" x="309.019835" y="109.898687" style="fill: #1f77b4; stroke: #1f77b4"/>
     <use xlink:href="#m64f3bf0219" x="312.094215" y="103.6174" style="fill: #1f77b4; stroke: #1f77b4"/>
     <use xlink:href="#m64f3bf0219" x="315.168595" y="101.790108" style="fill: #1f77b4; stroke: #1f77b4"/>
     <use xlink:href="#m64f3bf0219" x="318.242975" y="104.50544" style="fill: #1f77b4; stroke: #1f77b4"/>
     <use xlink:href="#m64f3bf0219" x="321.317355" y="111.409587" style="fill: #1f77b4; stroke: #1f77b4"/>
     <use xlink:href="#m64f3bf0219" x="324.391736" y="121.749433" style="fill: #1f77b4; stroke: #1f77b4"/>
     <use xlink:href="#m64f3bf0219" x="327.466116" y="134.453561" style="fill: #1f77b4; stroke: #1f77b4"/>
     <use xlink:href="#m64f3bf0219" x="330.540496" y="148.242517" style="fill: #1f77b4; stroke: #1f77b4"/>
     <use xlink:href="#m64f3bf0219" x="333.614876" y="161.757072" style="fill: #1f77b4; stroke: #1f77b4"/>
     <use xlink:href="#m64f3bf0219" x="336.689256" y="173.691667" style="fill: #1f77b4; stroke: #1f77b4"/>
     <use xlink:href="#m64f3bf0219" x="339.763636" y="182.919989" style="fill: #1f77b4; stroke: #1f77b4"/>
     <use xlink:href="#m64f3bf0219" x="342.838017" y="188.600673" style="fill: #1f77b4; stroke: #1f77b4"/>
     <use xlink:href="#m64f3bf0219" x="345.912397" y="190.253242" style="fill: #1f77b4; stroke: #1f77b4"/>
     <use xlink:href="#m64f3bf0219" x="348.986777" y="187.797545" style="fill: #1f77b4; stroke: #1f77b4"/>
     <use xlink:href="#m64f3bf0219" x="352.061157" y="181.553559" style="fill: #1f77b4; stroke: #1f77b4"/>
     <use xlink:href="#m64f3bf0219" x="355.135537" y="172.202386" style="fill: #1f77b4; stroke: #1f77b4"/>
     <use xlink:href="#m64f3bf0219" x="358.209917" y="160.713001" style="fill: #1f77b4; stroke: #1f77b4"/>
     <use xlink:href="#m64f3bf0219" x="361.284298" y="148.242517" style="fill: #1f77b4; stroke: #1f77b4"/>
     <use xlink:href="#m64f3bf0219" x="364.358678" y="136.020195" style="fill: #1f77b4; stroke: #1f77b4"/>
     <use xlink:href="#m64f3bf0219" x="367.433058" y="125.226762" style="fill: #1f77b4; stroke: #1f77b4"/>
     <use xlink:href="#m64f3bf0219" x="370.507438" y="116.880832" style="fill: #1f77b4; stroke: #1f77b4"/>
     <use xlink:href="#m64f3bf0219" x="373.581818" y="111.743324" style="fill: #1f77b4; stroke: #1f77b4"/>
    </g>
   </g>
   <g id="line2d_16">
    <path d="M 69.218182 148.242517 
L 373.581818 148.242517 
" clip-path="url(#pac1d3d71cb)" style="fill: none; stroke: #d62728; stroke-width: 1.5; stroke-linecap: square"/>
   </g>
   <g id="patch_3">
    <path d="M 54 252 
L 54 34.56 
" style="fill: none; stroke: #000000; stroke-width: 0.8; stroke-linejoin: miter; stroke-linecap: square"/>
   </g>
   <g id="patch_4">
    <path d="M 388.8 252 
L 388.8 34.56 
" style="fill: none; stroke: #000000; stroke-width: 0.8; stroke-linejoin: miter; stroke-linecap: square"/>
   </g>
   <g id="patch_5">
    <path d="M 54 252 
L 388.8 252 
" style="fill: none; stroke: #000000; stroke-width: 0.8; stroke-linejoin: miter; stroke-linecap: square"/>
   </g>
   <g id="patch_6">
    <path d="M 54 34.56 
L 388.8 34.56 
" style="fill: none; stroke: #000000; stroke-width: 0.8; stroke-linejoin: miter; stroke-linecap: square"/>
   </g>
  </g>
 </g>
 <defs>
  <clipPath id="pac1d3d71cb">
   <rect x="54" y="34.56" width="334.8" height="217.44"/>
  </clipPath>
 </defs>
</svg>
